<svg id="Group_23754" data-name="Group 23754" xmlns="http://www.w3.org/2000/svg" width="33.724" height="33.619" viewBox="0 0 33.724 33.619">
  <g id="Group_23751" data-name="Group 23751" transform="translate(0 0)">
    <path id="Path_197168" data-name="Path 197168" d="M1694.9,46.755a16.81,16.81,0,1,0,16.862,16.81A16.855,16.855,0,0,0,1694.9,46.755Zm0,32.635a15.826,15.826,0,1,1,15.878-15.825A15.87,15.87,0,0,1,1694.9,79.39Z" transform="translate(-1678.039 -46.755)" fill="#fff"/>
  </g>
  <g id="Group_23753" data-name="Group 23753" transform="translate(9.185 9.041)">
    <g id="Group_23752" data-name="Group 23752">
      <path id="Path_197169" data-name="Path 197169" d="M1706.77,73.642l6.1,6.1-1.537,1.537-6.1-6.1-6.1,6.1-1.537-1.537,6.1-6.1-6.1-6.1L1699.129,66l6.1,6.1,6.1-6.1,1.537,1.537Z" transform="translate(-1697.592 -66.001)" fill="#fff"/>
    </g>
  </g>
</svg>
