<svg xmlns="http://www.w3.org/2000/svg" width="54.588" height="54.418" viewBox="0 0 54.588 54.418">
  <g id="close-icon" transform="translate(0)">
    <g id="Group_23751" data-name="Group 23751">
      <path id="Path_197168" data-name="Path 197168" d="M1705.333,46.755a27.209,27.209,0,1,0,27.294,27.21A27.283,27.283,0,0,0,1705.333,46.755Zm0,52.825a25.616,25.616,0,1,1,25.7-25.616A25.688,25.688,0,0,1,1705.333,99.58Z" transform="translate(-1678.039 -46.755)" fill="#fff"/>
    </g>
    <g id="Group_23753" data-name="Group 23753" transform="translate(14.868 14.635)">
      <g id="Group_23752" data-name="Group 23752">
        <path id="Path_197169" data-name="Path 197169" d="M1712.448,78.369l9.881,9.881-2.487,2.487-9.881-9.881-9.881,9.881-2.488-2.487,9.882-9.881-9.882-9.881L1700.08,66l9.881,9.881L1719.841,66l2.487,2.487Z" transform="translate(-1697.592 -66.001)" fill="#fff"/>
      </g>
    </g>
  </g>
</svg>
