<svg xmlns="http://www.w3.org/2000/svg" width="20.945" height="20.945" viewBox="0 0 20.945 20.945">
  <g id="close_alert" transform="translate(-1887.594 -14.546)">
    <path id="Path_173761" data-name="Path 173761" d="M1898.066,14.8a10.223,10.223,0,1,0,10.223,10.222A10.233,10.233,0,0,0,1898.066,14.8Zm0,19.945a9.723,9.723,0,1,1,9.723-9.723A9.734,9.734,0,0,1,1898.066,34.741Z" fill="#424242" stroke="#424242" stroke-miterlimit="10" stroke-width="0.5"/>
    <path id="Path_173762" data-name="Path 173762" d="M1902.009,20.71l-3.954,3.954L1894.1,20.71l-.463.463,3.954,3.954-3.954,3.954.463.463,3.954-3.954,3.954,3.954.463-.463-3.954-3.954,3.954-3.954Z" fill="#424242" stroke="#424242" stroke-miterlimit="10" stroke-width="0.5"/>
  </g>
</svg>
