<svg xmlns="http://www.w3.org/2000/svg" width="54.828" height="37.77" viewBox="0 0 54.828 37.77">
  <g id="decouverte-icon" transform="translate(-930.993 -1310.464)" opacity="0.6">
    <path id="Path_4635" data-name="Path 4635" d="M938.384,1324.3a9.758,9.758,0,0,1,2.446-6.871c2.393-2.733,6.115-4.263,9.558-5.137l.749-.191-.417-1.641-.749.191c-3.8.964-7.78,2.654-10.415,5.663a11.414,11.414,0,0,0-2.868,7.44q.788.357,1.7.676C938.387,1324.391,938.385,1324.348,938.384,1324.3Z" fill="#fff"/>
    <path id="Path_4636" data-name="Path 4636" d="M959.763,1336.789a.983.983,0,1,0,.983.983A.982.982,0,0,0,959.763,1336.789Z" fill="#fff"/>
    <path id="Path_4637" data-name="Path 4637" d="M966.286,1338.505c-1.238-3.272-5.7-5.583-8.958-6.88l-1.761-.633c-.58-.181-1.169-.339-1.751-.489-1.1-.285-2.218-.542-3.328-.8-2.016-.469-4.032-.94-6.023-1.508a37.323,37.323,0,0,1-5.9-2.139l-1.834-1c-2.168-1.348-4-3.232-4.036-5.979l-.011-.77-1.692.02.011.774c.055,3.905,2.865,6.414,6.069,8.1a19.2,19.2,0,0,0,2.345,5.561,26.387,26.387,0,0,0,6.934,7.445s1.167.8,1.425.97a23.056,23.056,0,0,0,3.455,1.833,21.783,21.783,0,0,0,7.279,1.842,10.943,10.943,0,0,0,5.391-.9,4.891,4.891,0,0,0,2.336-2.251A4.045,4.045,0,0,0,966.286,1338.505Zm-1.584,2.481a3.259,3.259,0,0,1-1.555,1.447,9.352,9.352,0,0,1-4.556.728,20.11,20.11,0,0,1-6.688-1.707,23,23,0,0,1-2.9-1.507l-1.441-.954a24.7,24.7,0,0,1-6.7-7.114,18.443,18.443,0,0,1-1.761-3.73,43.525,43.525,0,0,0,4.854,1.66c2.033.581,4.09,1.063,6.148,1.542,1.1.255,2.194.508,3.284.79a26,26,0,0,1,2.549.764,24.7,24.7,0,0,1,6.2,3.193,7.538,7.538,0,0,1,2.565,3.006A2.381,2.381,0,0,1,964.7,1340.986Z" fill="#fff"/>
    <path id="Path_4638" data-name="Path 4638" d="M978.429,1334.394a9.756,9.756,0,0,1-2.446,6.872c-2.393,2.733-6.115,4.263-9.558,5.137l-.749.19.417,1.641.749-.19c3.8-.964,7.78-2.654,10.415-5.663a11.415,11.415,0,0,0,2.868-7.441q-.788-.357-1.7-.676C978.426,1334.308,978.428,1334.351,978.429,1334.394Z" fill="#fff"/>
    <path id="Path_4639" data-name="Path 4639" d="M985.81,1339.6c-.056-3.9-2.866-6.414-6.07-8.1a19.21,19.21,0,0,0-2.344-5.561,26.376,26.376,0,0,0-6.935-7.445l-1.425-.97a24.863,24.863,0,0,0-3.455-1.833,21.753,21.753,0,0,0-7.279-1.842,10.932,10.932,0,0,0-5.391.9,4.9,4.9,0,0,0-2.336,2.251,4.05,4.05,0,0,0-.048,3.192c1.238,3.272,5.708,5.552,8.958,6.879.277.113,1.762.634,1.762.634.579.18,1.168.339,1.75.489,1.1.285,2.218.542,3.328.8,2.016.47,4.032.941,6.023,1.508a37.363,37.363,0,0,1,5.9,2.14l1.834,1c2.167,1.348,4,3.231,4.035,5.978l.011.771,1.693-.02Zm-12.953-10.707c-2.033-.58-4.09-1.063-6.148-1.541-1.1-.256-2.194-.509-3.284-.79-.27-.07-.542-.141-.813-.216l-1.817-.578a24.528,24.528,0,0,1-6.12-3.164,7.528,7.528,0,0,1-2.565-3.005,2.38,2.38,0,0,1,0-1.882,3.259,3.259,0,0,1,1.555-1.447,9.344,9.344,0,0,1,4.556-.728,20.135,20.135,0,0,1,6.688,1.706,24.848,24.848,0,0,1,11.04,9.576,18.391,18.391,0,0,1,1.761,3.73A43.242,43.242,0,0,0,972.857,1328.889Z" fill="#fff"/>
    <path id="Path_4640" data-name="Path 4640" d="M957.05,1319.945a.983.983,0,1,0,.983.982A.982.982,0,0,0,957.05,1319.945Z" fill="#fff"/>
  </g>
</svg>
