<svg xmlns="http://www.w3.org/2000/svg" width="21.8" height="21.8" viewBox="0 0 21.8 21.8">
  <path id="Path_197226" data-name="Path 197226" d="M10.9,1.817A9.083,9.083,0,1,1,1.817,10.9,9.094,9.094,0,0,1,10.9,1.817ZM10.9,0A10.9,10.9,0,1,0,21.8,10.9,10.9,10.9,0,0,0,10.9,0Zm5,12.663a7.592,7.592,0,0,1-5,1.754,7.594,7.594,0,0,1-5-1.754l-.447.448A6.7,6.7,0,0,0,10.9,16.35a6.7,6.7,0,0,0,5.449-3.239Zm-8.182-5.4A1.363,1.363,0,1,0,9.083,8.629,1.362,1.362,0,0,0,7.721,7.267ZM16.35,9.085l-.686.46a1.812,1.812,0,0,0-1.586-.861,1.873,1.873,0,0,0-1.585.861l-.685-.46a2.746,2.746,0,0,1,2.27-1.818A2.749,2.749,0,0,1,16.35,9.085Z" fill="#fff"/>
</svg>
