<svg xmlns="http://www.w3.org/2000/svg" xmlns:xlink="http://www.w3.org/1999/xlink" width="132.537" height="132.529" viewBox="0 0 132.537 132.529">
  <defs>
    <clipPath id="clip-path">
      <rect id="Rectangle_490" data-name="Rectangle 490" width="53.939" height="9.549" transform="translate(955.871 6986.77)" fill="none"/>
    </clipPath>
  </defs>
  <g id="footer_logo" transform="translate(-892.082 -44.907)">
    <path id="Path_4882" data-name="Path 4882" d="M1023.619,6964.134a66.269,66.269,0,1,1-66.269-66.264,66.267,66.267,0,0,1,66.269,66.264" transform="translate(1 -6852.963)" fill="#89024f"/>
    <g id="Group_645" data-name="Group 645" transform="translate(0 -6852.963)" opacity="0.5">
      <g id="Group_644" data-name="Group 644">
        <g id="Group_643" data-name="Group 643" clip-path="url(#clip-path)">
          <text id="寿司を堪能" transform="translate(955.871 6993.665)" fill="#fff" font-size="7.608" font-family="KozGoPr6N-Regular, Kozuka Gothic Pr6N"><tspan x="0" y="0" letter-spacing="0.05em">寿</tspan><tspan y="0" letter-spacing="0.029em">司</tspan><tspan y="0" letter-spacing="0.03em">を</tspan><tspan y="0" letter-spacing="0.049em">堪</tspan><tspan y="0">能</tspan></text>
          <text id="す" transform="translate(995.508 6993.665)" fill="#fff" font-size="7.608" font-family="KozGoPr6N-Regular, Kozuka Gothic Pr6N"><tspan x="0" y="0">す</tspan></text>
          <text id="る" transform="translate(1002.126 6993.665)" fill="#fff" font-size="7.608" font-family="KozGoPr6N-Regular, Kozuka Gothic Pr6N"><tspan x="0" y="0">る</tspan></text>
        </g>
      </g>
    </g>
    <path id="Path_4883" data-name="Path 4883" d="M935.553,6932.992a9.251,9.251,0,0,1,2.319-6.514c2.268-2.59,5.8-4.041,9.059-4.869l.71-.18-.4-1.556-.71.181c-3.6.914-7.374,2.515-9.872,5.368a10.811,10.811,0,0,0-2.718,7.052q.746.339,1.611.641Z" transform="translate(0 -6852.963)" fill="#fff"/>
    <path id="Path_4884" data-name="Path 4884" d="M955.818,6944.826a.931.931,0,1,0,.932.931.931.931,0,0,0-.932-.931" transform="translate(0 -6852.963)" fill="#fff"/>
    <path id="Path_4885" data-name="Path 4885" d="M962,6946.452c-1.173-3.1-5.4-5.292-8.491-6.521l-1.67-.6c-.549-.171-1.107-.321-1.66-.464-1.047-.27-2.1-.513-3.154-.758-1.911-.445-3.821-.892-5.709-1.43a35.385,35.385,0,0,1-5.592-2.028l-1.738-.945c-2.055-1.278-3.788-3.063-3.825-5.667l-.011-.73-1.6.019.011.734c.053,3.7,2.716,6.079,5.754,7.675a18.185,18.185,0,0,0,2.222,5.271,24.994,24.994,0,0,0,6.573,7.057s1.106.76,1.351.919a21.79,21.79,0,0,0,3.275,1.738,20.643,20.643,0,0,0,6.9,1.746,10.364,10.364,0,0,0,5.11-.856,4.64,4.64,0,0,0,2.215-2.134,3.841,3.841,0,0,0,.045-3.026m-1.5,2.352a3.088,3.088,0,0,1-1.474,1.372,8.858,8.858,0,0,1-4.318.69,19.064,19.064,0,0,1-6.34-1.618,21.644,21.644,0,0,1-2.745-1.429l-1.367-.9a23.414,23.414,0,0,1-6.353-6.743,17.533,17.533,0,0,1-1.669-3.535,41.453,41.453,0,0,0,4.6,1.573c1.926.551,3.876,1.008,5.827,1.462,1.039.241,2.08.481,3.113.748a24.474,24.474,0,0,1,2.416.724,23.394,23.394,0,0,1,5.878,3.027,7.147,7.147,0,0,1,2.431,2.849,2.249,2.249,0,0,1,0,1.784" transform="translate(0 -6852.963)" fill="#fff"/>
    <path id="Path_4886" data-name="Path 4886" d="M973.512,6942.556a9.249,9.249,0,0,1-2.319,6.514c-2.268,2.59-5.8,4.041-9.06,4.869l-.709.18.395,1.556.709-.181c3.6-.914,7.375-2.515,9.872-5.368a10.8,10.8,0,0,0,2.718-7.052q-.744-.339-1.611-.641c0,.041,0,.082.005.123" transform="translate(0 -6852.963)" fill="#fff"/>
    <path id="Path_4887" data-name="Path 4887" d="M980.506,6947.486c-.052-3.7-2.715-6.08-5.753-7.675a18.167,18.167,0,0,0-2.222-5.271,24.975,24.975,0,0,0-6.573-7.057l-1.351-.92a23.492,23.492,0,0,0-3.275-1.737,20.639,20.639,0,0,0-6.9-1.747,10.373,10.373,0,0,0-5.11.856,4.644,4.644,0,0,0-2.215,2.134,3.846,3.846,0,0,0-.046,3.026c1.174,3.1,5.412,5.263,8.492,6.521.262.107,1.67.6,1.67.6.549.171,1.107.322,1.659.464,1.047.27,2.1.513,3.155.759,1.911.444,3.821.892,5.709,1.429a35.29,35.29,0,0,1,5.591,2.028l1.74.946c2.053,1.277,3.787,3.062,3.824,5.666l.011.73,1.6-.019Zm-12.277-10.149c-1.927-.55-3.876-1.007-5.827-1.461-1.039-.242-2.08-.482-3.113-.748-.256-.067-.514-.134-.771-.206l-1.722-.547a23.241,23.241,0,0,1-5.8-3,7.154,7.154,0,0,1-2.432-2.849,2.256,2.256,0,0,1,0-1.784,3.085,3.085,0,0,1,1.475-1.371,8.85,8.85,0,0,1,4.317-.691,19.11,19.11,0,0,1,6.341,1.618,23.556,23.556,0,0,1,10.464,9.077,17.419,17.419,0,0,1,1.669,3.535,41.174,41.174,0,0,0-4.6-1.574" transform="translate(0 -6852.963)" fill="#fff"/>
    <path id="Path_4888" data-name="Path 4888" d="M953.246,6928.859a.931.931,0,1,0,.932.931.931.931,0,0,0-.932-.931" transform="translate(0 -6852.963)" fill="#fff"/>
    <path id="Path_4889" data-name="Path 4889" d="M905,6974.507c0,2.694.1,4.271.69,5.027a1.779,1.779,0,0,0,1.511.723,1.842,1.842,0,0,0,1.511-.658,2.869,2.869,0,0,0,.559-1.97h2.661a5.3,5.3,0,0,1-1.38,3.777,4.455,4.455,0,0,1-3.351,1.249,4.227,4.227,0,0,1-3.384-1.314c-1.281-1.347-1.511-3.91-1.511-7.458,0-3.581.23-6.111,1.478-7.457a4.929,4.929,0,0,1,6.7,0c1.281,1.346,1.511,3.876,1.511,8.081Zm3.647-6.308a1.761,1.761,0,0,0-1.512-.689,1.7,1.7,0,0,0-1.478.689c-.526.624-.657,1.84-.657,4.3h4.3c0-2.464-.132-3.68-.657-4.3" transform="translate(0 -6852.963)" fill="#fff"/>
    <path id="Path_4890" data-name="Path 4890" d="M921.791,6982.393v-12.518a2.058,2.058,0,0,0-2.037-2.333c-1.117,0-2.005.789-2.005,2.333v12.518h-2.661v-17.019h2.563v1.315a3.562,3.562,0,0,1,1.052-1.052,3.447,3.447,0,0,1,1.839-.525,3.568,3.568,0,0,1,2.892,1.248c.69.756,1.018,1.676,1.018,3.515v12.518Z" transform="translate(0 -6852.963)" fill="#fff"/>
    <path id="Path_4891" data-name="Path 4891" d="M929.217,6987.715a5.468,5.468,0,0,1-3.713,1.051v-2.4c1.643,0,2.562-.656,2.562-2.562v-18.431h2.662V6983.9a4.6,4.6,0,0,1-1.511,3.812m-1.38-28.451h3.121v3.088h-3.121Z" transform="translate(0 -6852.963)" fill="#fff"/>
    <path id="Path_4892" data-name="Path 4892" d="M942.392,6981.078a4.18,4.18,0,0,1-3.614,1.577,4.118,4.118,0,0,1-3.581-1.577c-1.052-1.347-1.249-3.745-1.249-7.2s.2-5.847,1.249-7.194a4.118,4.118,0,0,1,3.581-1.577,4.181,4.181,0,0,1,3.614,1.577c1.051,1.347,1.216,3.745,1.216,7.194s-.165,5.849-1.216,7.2m-2.1-12.846a1.825,1.825,0,0,0-1.511-.723,1.765,1.765,0,0,0-1.479.723c-.624.854-.69,2.6-.69,5.65s.066,4.8.69,5.652a1.764,1.764,0,0,0,1.479.722,1.824,1.824,0,0,0,1.511-.722c.624-.855.657-2.6.657-5.652s-.033-4.8-.657-5.65" transform="translate(0 -6852.963)" fill="#fff"/>
    <path id="Path_4893" data-name="Path 4893" d="M951.132,6985.119c-.723,3.056-2.826,3.646-5.651,3.646V6986.4c1.643,0,2.661-.427,3.055-1.97l.526-2.071-4.139-16.985h2.923l2.6,12.78,2.563-12.78h2.924Z" transform="translate(0 -6852.963)" fill="#fff"/>
    <path id="Path_4894" data-name="Path 4894" d="M966.312,6981.374a4.388,4.388,0,0,1-3.187,1.281,4.162,4.162,0,0,1-3.056-1.182,4.932,4.932,0,0,1-1.314-3.615h1.84a3.233,3.233,0,0,0,.854,2.464,2.334,2.334,0,0,0,1.676.691,2.573,2.573,0,0,0,1.906-.756,2.862,2.862,0,0,0,.755-2.07,3.288,3.288,0,0,0-.46-1.807,4.335,4.335,0,0,0-1.676-1.445l-2.1-1.151a5.867,5.867,0,0,1-2.169-1.971,4.317,4.317,0,0,1-.46-2.1,4.413,4.413,0,0,1,1.314-3.154,4.142,4.142,0,0,1,2.991-1.15,4.015,4.015,0,0,1,2.989,1.117,4.858,4.858,0,0,1,1.216,3.614h-1.84a3.128,3.128,0,0,0-.723-2.431,2.152,2.152,0,0,0-1.642-.657,2.362,2.362,0,0,0-1.742.624,2.722,2.722,0,0,0-.723,1.971,2.865,2.865,0,0,0,.328,1.446,3.951,3.951,0,0,0,1.545,1.248l2.07,1.182a5.7,5.7,0,0,1,2.267,1.972,5.043,5.043,0,0,1,.657,2.628,4.59,4.59,0,0,1-1.314,3.253" transform="translate(0 -6852.963)" fill="#fff"/>
    <path id="Path_4895" data-name="Path 4895" d="M977.122,6982.393v-1.348a3.52,3.52,0,0,1-.953,1.019,3.29,3.29,0,0,1-1.905.592,3.422,3.422,0,0,1-2.629-1.117,4.441,4.441,0,0,1-1.019-3.319v-12.55h1.84v12.583c0,1.84,1.019,2.727,2.3,2.727s2.333-.887,2.333-2.727V6965.67h1.84v16.723Z" transform="translate(0 -6852.963)" fill="#fff"/>
    <path id="Path_4896" data-name="Path 4896" d="M989.607,6981.374a4.387,4.387,0,0,1-3.188,1.281,4.161,4.161,0,0,1-3.055-1.182,4.932,4.932,0,0,1-1.315-3.615h1.841a3.232,3.232,0,0,0,.854,2.464,2.333,2.333,0,0,0,1.675.691,2.57,2.57,0,0,0,1.906-.756,2.859,2.859,0,0,0,.756-2.07,3.288,3.288,0,0,0-.46-1.807,4.346,4.346,0,0,0-1.675-1.445l-2.1-1.151a5.879,5.879,0,0,1-2.168-1.971,4.305,4.305,0,0,1-.46-2.1,4.413,4.413,0,0,1,1.314-3.154,4.141,4.141,0,0,1,2.99-1.15,4.016,4.016,0,0,1,2.99,1.117,4.858,4.858,0,0,1,1.216,3.614h-1.841a3.128,3.128,0,0,0-.722-2.431,2.153,2.153,0,0,0-1.643-.657,2.361,2.361,0,0,0-1.741.624,2.722,2.722,0,0,0-.723,1.971,2.865,2.865,0,0,0,.328,1.446,3.954,3.954,0,0,0,1.544,1.248l2.071,1.182a5.691,5.691,0,0,1,2.266,1.972,5.033,5.033,0,0,1,.657,2.628,4.589,4.589,0,0,1-1.313,3.253" transform="translate(0 -6852.963)" fill="#fff"/>
    <path id="Path_4897" data-name="Path 4897" d="M1000.516,6982.393V6969.81c0-1.84-1.019-2.727-2.3-2.727s-2.333.887-2.333,2.727v12.583h-1.84V6959h1.84v7.985a3.325,3.325,0,0,1,.92-.987,3.287,3.287,0,0,1,1.906-.59,3.44,3.44,0,0,1,2.628,1.149,4.352,4.352,0,0,1,1.019,3.285v12.551Z" transform="translate(0 -6852.963)" fill="#fff"/>
    <path id="Path_4898" data-name="Path 4898" d="M1006.036,6959.46h2.365v2.366h-2.365Zm.263,6.21h1.84v16.723h-1.84Z" transform="translate(0 -6852.963)" fill="#fff"/>
  </g>
</svg>
