<svg xmlns="http://www.w3.org/2000/svg" width="18.684" height="18.684" viewBox="0 0 18.684 18.684">
  <path id="Path_197183" data-name="Path 197183" d="M8.564,18.684H1.557V9.342H8.564Zm0-14.013H0V7.785H8.564Zm1.557,14.013h7.007V9.342H10.121Zm0-14.013V7.785h8.564V4.671ZM13.522,0c-2.294,0-3.636,2.707-4.18,3.893H13.5A1.949,1.949,0,1,0,13.522,0ZM12.9,2.819h-1.59c.575-.873,1.12-1.531,1.823-1.531C14.047,1.288,14.091,2.819,12.9,2.819ZM5.181,3.893H9.342C8.8,2.707,7.457,0,5.162,0A1.949,1.949,0,1,0,5.181,3.893Zm.368-2.6c.7,0,1.248.658,1.823,1.531H5.782C4.593,2.819,4.637,1.288,5.549,1.288Z" fill="#fff"/>
</svg>
