<svg xmlns="http://www.w3.org/2000/svg" width="208.446" height="208.445" viewBox="0 0 208.446 208.445">
  <g id="Group_1996" data-name="Group 1996" transform="translate(-560.917 -1036.643)">
    <path id="Path_57229" data-name="Path 57229" d="M665.14,1036.643a104.223,104.223,0,1,0,104.223,104.222A104.34,104.34,0,0,0,665.14,1036.643Zm101.681,104.222A101.681,101.681,0,1,1,665.14,1039.184,101.8,101.8,0,0,1,766.821,1140.865Z" fill="#48323c"/>
    <path id="Path_57230" data-name="Path 57230" d="M668.345,1180.2h4.325v-.694h-4.159c.07-.34.142-.692.2-1.057h4.714v-.718h-4.6c.047-.305.095-.608.13-.912.165-.012.248-.073.272-.171l-1.1-.181c-.048.436-.106.851-.177,1.264h-3.781v.718h3.674l-.212,1.057h-2.8v.694h2.636c-.1.365-.189.7-.3,1.046h-3.805v.729h3.545a12.313,12.313,0,0,1-.613,1.388H663.62v.741h2.233a7.629,7.629,0,0,1-2.517,2.433,4.662,4.662,0,0,1,.639.62,8.8,8.8,0,0,0,2.882-3.053h4.052v2.677c0,.23-.036.254-.921.254-.307,0-.7,0-1.123-.012a3.779,3.779,0,0,1,.284.767,7.534,7.534,0,0,0,2.067-.146c.379-.122.5-.354.5-.851V1184.1h2.209v-.741h-2.209v-1.011c.165-.023.224-.084.236-.169l-1.04-.061v1.241h-3.65a11.985,11.985,0,0,0,.566-1.388h6.321v-.729h-6.083C668.168,1180.9,668.263,1180.562,668.345,1180.2Z" fill="#48323c"/>
    <path id="Path_57231" data-name="Path 57231" d="M666.963,1184.612l-.638.462a12.425,12.425,0,0,1,1.691,1.8l.66-.522A13.612,13.612,0,0,0,666.963,1184.612Z" fill="#48323c"/>
    <path id="Path_57232" data-name="Path 57232" d="M676.242,1178.068h8.672v8.527c0,.317-.023.317-1.027.317-.344,0-.768-.014-1.193-.026a4.05,4.05,0,0,1,.284.9c2.28,0,2.752-.024,2.752-1.192v-9.317h-9.488Z" fill="#48323c"/>
    <path id="Path_57233" data-name="Path 57233" d="M677.07,1186.692h.779v-1.143h4.431v-4.124h-5.21Zm.779-4.537H681.5v2.663h-3.651Z" fill="#48323c"/>
    <rect id="Rectangle_905" data-name="Rectangle 905" width="7.254" height="0.743" transform="translate(676.254 1179.37)" fill="#48323c"/>
    <path id="Path_57234" data-name="Path 57234" d="M694.7,1182.094c-.154-.985-.661-1.581-1.464-1.581a3.1,3.1,0,0,0-1.9.791h-.012a8.925,8.925,0,0,0,.851-2.056,17.35,17.35,0,0,0,4.43-.681l-.141-.815a15.676,15.676,0,0,1-4.065.705c.107-.436.213-.863.3-1.349.177-.025.272-.1.3-.219l-1.159-.146a16.388,16.388,0,0,1-.318,1.74l-.8.011c-.484,0-1.323,0-2.044-.011v.79h1.973l.661-.012a8.535,8.535,0,0,1-2.977,4.488l.58.6c.507-.474.968-.95,1.3-1.325,1.064-1.217,1.961-1.716,2.825-1.716.472,0,.8.377.873,1.144-1.772.912-3.142,1.946-3.142,3.015,0,1.241,1,1.8,3.273,1.8,1.216,0,2.28-.024,2.977-.1l-.012-.815a25.61,25.61,0,0,1-2.965.121c-1.632,0-2.447-.34-2.447-1.046,0-.73,1.087-1.545,2.423-2.213.012.134.012.3.012.486,0,.474-.024,1.034-.059,1.472l.861-.049c.024-.474.035-.912.035-1.3,0-.352-.011-.669-.035-.95.982-.436,2.292-.935,3.191-1.24a.287.287,0,0,0,.176.073.166.166,0,0,0,.072-.024l-.367-.924C696.946,1181.134,695.694,1181.632,694.7,1182.094Z" fill="#48323c"/>
    <path id="Path_57235" data-name="Path 57235" d="M709.475,1178.469h1.394v-.729h-1.394v-1.034c.153-.024.213-.085.224-.169l-.992-.061v1.264h-2.943v-1.034c.155-.024.225-.085.237-.169l-.993-.061v1.264h-1.346v.729h1.346v4.124h-1.8v.743h.887v4.439h.744v-.5h6.049v-.766h-6.049v-3.173h1.36c-.036,1.179-.284,1.665-1.288,1.97a1.407,1.407,0,0,1,.365.535c1.264-.414,1.524-1.156,1.584-2.5h1.111v1.264c0,.682.176.851.885.851h1.04c.532,0,.72-.23.78-1.118a1.492,1.492,0,0,1-.567-.244c-.024.682-.072.755-.308.755h-.874c-.259,0-.3-.037-.3-.244v-1.264h2.4v-.743h-1.558Zm-.768,4.124h-2.943v-.973h2.943Zm0-1.592h-2.943v-.961h2.943Zm0-1.571h-2.943v-.961h2.943Z" fill="#48323c"/>
    <path id="Path_57236" data-name="Path 57236" d="M702.2,1183.906v-3.77H703.4v-.778H702.2v-2.664c.154-.024.226-.085.238-.171l-.97-.059v2.894h-1.311v.778h1.311v4.063c-.578.23-1.1.438-1.513.584l.415.924a.233.233,0,0,0,.129-.207c.78-.34,2-.876,3.144-1.4l-.155-.718Z" fill="#48323c"/>
    <path id="Path_57237" data-name="Path 57237" d="M722.108,1186.923h-2.079c-.59,0-.709-.072-.709-.487v-1.508a17.046,17.046,0,0,0,3.427-1.3.285.285,0,0,0,.094.012.212.212,0,0,0,.13-.036l-.591-.682a13.726,13.726,0,0,1-3.06,1.314v-1.776c.166-.023.224-.084.236-.17l-1.016-.061v4.222c0,.959.307,1.2,1.419,1.2h2.209c.992,0,1.228-.425,1.324-2.068a2.746,2.746,0,0,1-.721-.316C722.723,1186.68,722.64,1186.923,722.108,1186.923Z" fill="#48323c"/>
    <path id="Path_57238" data-name="Path 57238" d="M715.942,1177.862a15.873,15.873,0,0,1,.885,1.35c-.945.036-1.877.073-2.717.1.4-.765.816-1.715,1.1-2.432.141-.012.225-.049.26-.134l-.969-.267a19.948,19.948,0,0,1-1.206,2.858l-.968.024.26.961a.216.216,0,0,0,.177-.171c1.087-.048,2.788-.134,4.443-.256a6.468,6.468,0,0,1,.33.743l.686-.328a12.018,12.018,0,0,0-1.631-2.725Z" fill="#48323c"/>
    <path id="Path_57239" data-name="Path 57239" d="M719.935,1181.864h2.137c.935,0,1.171-.4,1.277-1.885a2.134,2.134,0,0,1-.733-.329c-.047,1.252-.129,1.459-.613,1.459h-2.009c-.567,0-.663-.073-.663-.462v-1.362a26.967,26.967,0,0,0,3.261-1.168.33.33,0,0,0,.108.012.173.173,0,0,0,.117-.036l-.6-.67a21.2,21.2,0,0,1-2.884,1.193v-1.9c.155-.025.213-.086.225-.171l-1.016-.06v4.171C718.54,1181.608,718.836,1181.864,719.935,1181.864Z" fill="#48323c"/>
    <path id="Path_57240" data-name="Path 57240" d="M713.166,1187.81h.743v-2.335H716.6v1.339c0,.218-.06.218-.568.218-.236,0-.555-.012-.908-.024a3.471,3.471,0,0,1,.283.767c1.5,0,1.973-.037,1.973-.95v-5.7h-4.217Zm.743-5.983H716.6v1.132h-2.694Zm0,1.788H716.6v1.2h-2.694Z" fill="#48323c"/>
    <path id="Path_57241" data-name="Path 57241" d="M731.518,1176.889c.212-.036.295-.158.307-.256l-1.216-.049c.023.305.057,1.631.069,1.9l-2.752.1-2.694.073.024.8c.485-.026,4.218-.159,5.446-.183.024.523.048,1.338.048,1.545a1.716,1.716,0,0,0-1.1-.377,2.207,2.207,0,0,0-2.125,2.274,2.048,2.048,0,0,0,1.984,2.129,1.474,1.474,0,0,0,1.217-.645h.012c-.3,1.156-1.264,2.164-3.073,2.833a6.357,6.357,0,0,1,.6.694c2.079-.852,3.1-2.1,3.4-3.527a5.361,5.361,0,0,0,.119-1.179,4.267,4.267,0,0,0-.142-1.278c-.036-.669-.059-1.545-.082-2.494,1.405-.048,2.835-.073,3.839-.048v-.839c-.887.012-2.411.049-3.864.1C731.518,1177.181,731.518,1177.034,731.518,1176.889Zm-1.914,7.237a1.344,1.344,0,0,1-1.312-1.411,1.45,1.45,0,0,1,1.406-1.545c1.206,0,1.206,1.107,1.206,1.581A1.3,1.3,0,0,1,729.6,1184.126Z" fill="#48323c"/>
    <path id="Path_57242" data-name="Path 57242" d="M737.465,1178.324c1.345-.048,3.709-.146,4.394-.244-1.606,1.545-4.986,4.867-6.05,6.009l.6.621c.319-.377.78-.888,1.133-1.229a6.623,6.623,0,0,1,4.289-1.593,2.151,2.151,0,0,1,2.434,2.152,2.374,2.374,0,0,1-1.63,2.274,2.521,2.521,0,0,0-2.41-2.2,1.8,1.8,0,0,0-1.937,1.63c0,1.07,1.05,1.7,2.586,1.7,2.375,0,4.253-1.216,4.253-3.418a2.786,2.786,0,0,0-3.059-2.919,7.005,7.005,0,0,0-2.931.706v-.012c.922-.912,3.168-3.078,4.005-3.782a.57.57,0,0,0,.284-.11l-.626-.791-.178.085c-.861.134-3.91.256-5.505.267l.1,1.034A.388.388,0,0,0,737.465,1178.324Zm3.307,8.356c-.78,0-1.759-.207-1.759-.949,0-.559.541-.9,1.157-.9a1.847,1.847,0,0,1,1.677,1.726A5.016,5.016,0,0,1,740.772,1186.68Z" fill="#48323c"/>
    <path id="Path_57243" data-name="Path 57243" d="M631.276,1092.48a14.371,14.371,0,0,1,3.6-10.12c3.524-4.025,9.005-6.278,14.075-7.565l1.1-.28-.613-2.417-1.1.28c-5.593,1.42-11.456,3.908-15.337,8.341a16.794,16.794,0,0,0-4.223,10.957q1.156.525,2.5.995C631.28,1092.608,631.277,1092.544,631.276,1092.48Z" fill="#48323c"/>
    <path id="Path_57244" data-name="Path 57244" d="M662.759,1113.759a1.447,1.447,0,1,0-1.446-1.446A1.446,1.446,0,0,0,662.759,1113.759Z" fill="#48323c"/>
    <path id="Path_57245" data-name="Path 57245" d="M660.915,1122.739a16.118,16.118,0,0,0,7.939-1.33,7.213,7.213,0,0,0,3.44-3.315,5.961,5.961,0,0,0,.07-4.7c-1.822-4.818-8.387-8.222-13.191-10.132l-2.594-.932c-.853-.266-1.72-.5-2.579-.721-1.626-.42-3.265-.8-4.9-1.179-2.969-.69-5.937-1.385-8.869-2.221a54.98,54.98,0,0,1-8.688-3.15l-2.7-1.469c-3.191-1.985-5.885-4.758-5.942-8.8l-.016-1.135-2.493.03.017,1.14c.082,5.751,4.219,9.446,8.938,11.924a28.244,28.244,0,0,0,3.452,8.19A38.834,38.834,0,0,0,643.01,1115.9s1.718,1.181,2.1,1.428a33.95,33.95,0,0,0,5.088,2.7A32.069,32.069,0,0,0,660.915,1122.739Zm-16.119-8.627a36.382,36.382,0,0,1-9.87-10.477,27.183,27.183,0,0,1-2.593-5.493,63.833,63.833,0,0,0,7.149,2.445c2.993.856,6.022,1.565,9.052,2.271,1.615.375,3.232.748,4.836,1.163a38.185,38.185,0,0,1,3.754,1.124,36.416,36.416,0,0,1,9.132,4.7,11.111,11.111,0,0,1,3.777,4.427,3.493,3.493,0,0,1,0,2.771,4.788,4.788,0,0,1-2.29,2.132,13.76,13.76,0,0,1-6.708,1.072,29.661,29.661,0,0,1-9.849-2.513,33.735,33.735,0,0,1-4.266-2.221Z" fill="#48323c"/>
    <path id="Path_57246" data-name="Path 57246" d="M688.52,1119.1a16.8,16.8,0,0,0,4.223-10.958q-1.158-.525-2.5-.995c0,.064.005.128.007.191a14.373,14.373,0,0,1-3.6,10.121c-3.525,4.024-9.006,6.277-14.075,7.564l-1.1.28.614,2.417,1.1-.28C678.776,1126.021,684.64,1123.533,688.52,1119.1Z" fill="#48323c"/>
    <path id="Path_57247" data-name="Path 57247" d="M649.157,1086.426c1.823,4.819,8.406,8.177,13.192,10.132.408.166,2.594.933,2.594.933.853.266,1.721.5,2.579.72,1.626.42,3.265.8,4.9,1.178,2.969.692,5.937,1.387,8.87,2.222a55.018,55.018,0,0,1,8.687,3.15l2.7,1.469c3.191,1.985,5.885,4.759,5.942,8.8l.017,1.135,2.492-.03-.016-1.14c-.083-5.75-4.219-9.446-8.938-11.924a28.309,28.309,0,0,0-3.452-8.19,38.846,38.846,0,0,0-10.212-10.963l-2.1-1.429a36.659,36.659,0,0,0-5.089-2.7,32.089,32.089,0,0,0-10.719-2.713,16.117,16.117,0,0,0-7.939,1.33,7.21,7.21,0,0,0-3.44,3.316A5.962,5.962,0,0,0,649.157,1086.426Zm2.334-3.653a4.793,4.793,0,0,1,2.289-2.131,13.772,13.772,0,0,1,6.709-1.073,29.677,29.677,0,0,1,9.85,2.514,36.6,36.6,0,0,1,16.257,14.1,27.165,27.165,0,0,1,2.593,5.493,63.864,63.864,0,0,0-7.148-2.445c-2.993-.855-6.023-1.565-9.054-2.27-1.614-.376-3.231-.749-4.835-1.163-.4-.1-.8-.208-1.2-.318l-2.675-.852a36.133,36.133,0,0,1-9.013-4.658,11.107,11.107,0,0,1-3.777-4.426A3.5,3.5,0,0,1,651.491,1082.773Z" fill="#48323c"/>
    <path id="Path_57248" data-name="Path 57248" d="M658.763,1088.953a1.446,1.446,0,1,0-1.446-1.446A1.447,1.447,0,0,0,658.763,1088.953Z" fill="#48323c"/>
    <path id="Path_57249" data-name="Path 57249" d="M592.336,1144.425a7.657,7.657,0,0,0-10.412,0c-1.94,2.092-2.3,6.022-2.3,11.586,0,5.513.358,9.494,2.348,11.587a6.568,6.568,0,0,0,5.258,2.042,6.929,6.929,0,0,0,5.206-1.94,8.229,8.229,0,0,0,2.144-5.87h-4.134a4.467,4.467,0,0,1-.868,3.063,2.867,2.867,0,0,1-2.348,1.021,2.766,2.766,0,0,1-2.348-1.123c-.919-1.174-1.072-3.624-1.072-7.81h10.872C594.684,1150.447,594.327,1146.517,592.336,1144.425Zm-8.524,9.442c0-3.828.2-5.716,1.021-6.686a2.635,2.635,0,0,1,2.3-1.072,2.733,2.733,0,0,1,2.348,1.072c.816.97,1.021,2.858,1.021,6.686Z" fill="#48323c"/>
    <path id="Path_57250" data-name="Path 57250" d="M607.956,1142.383a5.35,5.35,0,0,0-2.858.817,5.541,5.541,0,0,0-1.634,1.633v-2.042h-3.981v26.441h4.135v-19.448c0-2.4,1.378-3.624,3.113-3.624s3.165,1.225,3.165,3.624v19.448h4.135v-19.448c0-2.858-.511-4.288-1.583-5.462A5.54,5.54,0,0,0,607.956,1142.383Z" fill="#48323c"/>
    <rect id="Rectangle_906" data-name="Rectangle 906" width="4.85" height="4.798" transform="translate(619.288 1133.297)" fill="#48323c"/>
    <path id="Path_57251" data-name="Path 57251" d="M619.645,1171.426c0,2.961-1.428,3.982-3.981,3.982v3.726c2.246,0,4.185-.306,5.768-1.633,1.429-1.174,2.348-3.012,2.348-5.921v-28.789h-4.135Z" fill="#48323c"/>
    <path id="Path_57252" data-name="Path 57252" d="M636.286,1142.383a6.4,6.4,0,0,0-5.564,2.45c-1.634,2.093-1.94,5.819-1.94,11.178s.306,9.086,1.94,11.179a6.4,6.4,0,0,0,5.564,2.45,6.5,6.5,0,0,0,5.615-2.45c1.633-2.093,1.888-5.819,1.888-11.179s-.255-9.085-1.888-11.178A6.5,6.5,0,0,0,636.286,1142.383Zm2.348,22.408a2.837,2.837,0,0,1-2.348,1.123,2.74,2.74,0,0,1-2.3-1.123c-.97-1.327-1.072-4.033-1.072-8.78s.1-7.452,1.072-8.779a2.737,2.737,0,0,1,2.3-1.123,2.834,2.834,0,0,1,2.348,1.123c.969,1.327,1.021,4.032,1.021,8.779S639.6,1163.464,638.634,1164.791Z" fill="#48323c"/>
    <path id="Path_57253" data-name="Path 57253" d="M654.407,1162.647l-4.032-19.856h-4.543l6.431,26.39-.816,3.215c-.612,2.4-2.2,3.063-4.747,3.063v3.675c4.39,0,7.656-.919,8.779-5.666l7.452-30.677h-4.542Z" fill="#48323c"/>
    <path id="Path_57254" data-name="Path 57254" d="M674.11,1167.088a3.63,3.63,0,0,1-2.6-1.072,5.028,5.028,0,0,1-1.327-3.828h-2.859a7.656,7.656,0,0,0,2.042,5.614,6.465,6.465,0,0,0,4.747,1.838,6.815,6.815,0,0,0,4.952-1.991,7.13,7.13,0,0,0,2.041-5.053,7.827,7.827,0,0,0-1.021-4.083,8.84,8.84,0,0,0-3.522-3.063l-3.215-1.838a6.134,6.134,0,0,1-2.4-1.939,4.436,4.436,0,0,1-.51-2.246,4.23,4.23,0,0,1,1.123-3.063,3.67,3.67,0,0,1,2.705-.97,3.348,3.348,0,0,1,2.552,1.021c.817.868,1.123,1.838,1.123,3.777H680.8c0-2.5-.613-4.338-1.889-5.614a6.237,6.237,0,0,0-4.645-1.736,6.437,6.437,0,0,0-4.645,1.787,6.85,6.85,0,0,0-2.041,4.9,6.708,6.708,0,0,0,.714,3.267,9.111,9.111,0,0,0,3.369,3.062l3.267,1.787a6.765,6.765,0,0,1,2.6,2.246,5.117,5.117,0,0,1,.714,2.807,4.445,4.445,0,0,1-1.173,3.216A4,4,0,0,1,674.11,1167.088Z" fill="#48323c"/>
    <path id="Path_57255" data-name="Path 57255" d="M695.8,1162.8c0,2.859-1.633,4.237-3.624,4.237s-3.573-1.378-3.573-4.237v-19.55h-2.858v19.5c0,2.6.561,4.084,1.582,5.155a5.315,5.315,0,0,0,4.084,1.736,5.1,5.1,0,0,0,2.96-.919,5.505,5.505,0,0,0,1.48-1.582v2.093h2.807V1143.25H695.8Z" fill="#48323c"/>
    <path id="Path_57256" data-name="Path 57256" d="M710.3,1167.088a3.628,3.628,0,0,1-2.6-1.072,5.025,5.025,0,0,1-1.327-3.828h-2.859a7.652,7.652,0,0,0,2.042,5.614,6.463,6.463,0,0,0,4.747,1.838,6.811,6.811,0,0,0,4.951-1.991,7.127,7.127,0,0,0,2.042-5.053,7.837,7.837,0,0,0-1.021-4.083,8.84,8.84,0,0,0-3.522-3.063l-3.216-1.838a6.137,6.137,0,0,1-2.4-1.939,4.436,4.436,0,0,1-.51-2.246,4.234,4.234,0,0,1,1.122-3.063,3.673,3.673,0,0,1,2.707-.97,3.348,3.348,0,0,1,2.551,1.021c.817.868,1.123,1.838,1.123,3.777h2.858c0-2.5-.612-4.338-1.888-5.614a6.236,6.236,0,0,0-4.644-1.736,6.438,6.438,0,0,0-4.647,1.787,6.854,6.854,0,0,0-2.041,4.9,6.708,6.708,0,0,0,.715,3.267,9.111,9.111,0,0,0,3.369,3.062l3.267,1.787a6.772,6.772,0,0,1,2.6,2.246,5.109,5.109,0,0,1,.715,2.807,4.442,4.442,0,0,1-1.175,3.216A4,4,0,0,1,710.3,1167.088Z" fill="#48323c"/>
    <path id="Path_57257" data-name="Path 57257" d="M728.626,1145.446c1.991,0,3.573,1.378,3.573,4.236v19.55h2.859v-19.5c0-2.6-.562-4.032-1.582-5.1a5.355,5.355,0,0,0-4.084-1.787,5.1,5.1,0,0,0-2.96.919,5.167,5.167,0,0,0-1.43,1.531v-12.4h-2.858v36.343H725v-19.55C725,1146.824,726.636,1145.446,728.626,1145.446Z" fill="#48323c"/>
    <rect id="Rectangle_907" data-name="Rectangle 907" width="3.675" height="3.675" transform="translate(740.776 1133.603)" fill="#48323c"/>
    <rect id="Rectangle_908" data-name="Rectangle 908" width="2.858" height="25.981" transform="translate(741.184 1143.25)" fill="#48323c"/>
  </g>
</svg>
