<svg xmlns="http://www.w3.org/2000/svg" xmlns:xlink="http://www.w3.org/1999/xlink" width="38.716" height="34.979" viewBox="0 0 38.716 34.979">
  <defs>
    <clipPath id="clip-path">
      <rect id="Rectangle_425" data-name="Rectangle 425" width="38.716" height="34.979" fill="none"/>
    </clipPath>
    <clipPath id="clip-path-2">
      <rect id="Rectangle_424" data-name="Rectangle 424" width="38.717" height="34.979" fill="none"/>
    </clipPath>
  </defs>
  <g id="header3" transform="translate(0)">
    <g id="Group_424" data-name="Group 424" transform="translate(0)">
      <g id="Group_423" data-name="Group 423" clip-path="url(#clip-path)">
        <g id="Group_422" data-name="Group 422" transform="translate(0 0.001)">
          <g id="Group_421" data-name="Group 421" clip-path="url(#clip-path-2)">
            <path id="Path_4612" data-name="Path 4612" d="M1440.732,133.74c3.986-6.357,6.788-11.189,6.788-15.333,0-5.078-4.566-9.195-9.613-9.195s-9.614,4.117-9.614,9.195c0,4.146,2.8,8.976,6.792,15.334-7.469.3-16.488,1.792-16.488,5.2,0,3.855,11.579,5.256,19.36,5.256s19.358-1.4,19.358-5.256c0-3.418-9.1-4.906-16.584-5.2m-2.774,8.861c-11.664,0-17.767-2.386-17.767-3.664,0-1.207,5.445-3.4,15.868-3.638.6.945,1.212,1.92,1.848,2.934.637-1.017,1.252-1.992,1.849-2.937,10.487.231,15.967,2.43,15.967,3.64,0,1.278-6.1,3.664-17.765,3.664" transform="translate(-1418.599 -109.214)" fill="#fff"/>
          </g>
        </g>
      </g>
    </g>
  </g>
</svg>
