<svg xmlns="http://www.w3.org/2000/svg" width="23.638" height="28.889" viewBox="0 0 23.638 28.889">
  <path id="icon3" d="M1044.124,1171.31c.955-3.952,1.48-10.609-2.6-10.609-2.2,0-2.778,2.008-3.349,4.007-2.329,8.17-6.281,8.837-9.928,9.32v11.95a21.345,21.345,0,0,1,9.655,2.217,15.44,15.44,0,0,0,6.306,1.394c3,0,5.076-1.2,5.921-4.438a84.592,84.592,0,0,0,1.756-9.93,2.9,2.9,0,0,0-3.066-3.018A14.951,14.951,0,0,1,1044.124,1171.31Zm4.395,5.2-1.648.2s-.719,1.335.167,1.342c0,0,.238.012,1.263-.033,1.279-.055,1.242,1.768.005,1.882l-2.081.119a.711.711,0,0,0,.167,1.411s.811-.021,1.35-.049c1.263-.068,1.2,1.72.048,1.867-.5.063-2.063.138-2.063.138a.69.69,0,1,0,.129,1.373l.912-.038c.971-.089,1.186.994-.345,2-1.852,1.061-5.537.158-7.583-.739-2.645-1.161-5.245-2.328-8.224-2.415v-7.222c3.856-.9,7.48-2.713,9.834-10.969,1.062-3.723,1.985-2.325,1.985.69a26.911,26.911,0,0,1-1.089,6.66,19.066,19.066,0,0,0,7.234,1.873A.954.954,0,0,1,1048.519,1176.511Z" transform="translate(-1028.251 -1160.701)" fill="#89024f"/>
</svg>
