<svg xmlns="http://www.w3.org/2000/svg" width="27.901" height="27.901" viewBox="0 0 27.901 27.901">
  <path id="icon6" d="M591.388,5047.522l-1.784-1.147,6.276-.718,2.237,5.839-1.765-1.117c-1.723,2.793-3.3,6.062-2.3,9.18-2.91-2.467-4.541-4.364-4.541-6.654,0-1.653,1.074-3.881,1.877-5.383m4.717,6.539a6.609,6.609,0,0,0-.876,4.733,1.361,1.361,0,0,0,1.334,1.08H602.3v-5.813Zm12.446,6.017v2.12l-3.918-4.955,3.918-4.978v2.089c3.282-.006,6.74-.387,8.861-2.882-.563,3.773-1.315,6.159-3.261,7.366-1.405.869-3.9,1.131-5.6,1.24m3.106-7.455a6.6,6.6,0,0,0,4.485-1.75,1.361,1.361,0,0,0,.215-1.7l-3.022-4.873-4.941,3.062Zm-1.089-13.44,1.872-1L610,5044.013l-6.189-.9,1.836-1c-1.595-2.867-3.676-5.845-6.888-6.49a16.673,16.673,0,0,1,5.507-1.333c2.6,0,4.116,1.471,6.3,4.886m-8.009.924a6.6,6.6,0,0,0-3.7-3.075,1.359,1.359,0,0,0-1.593.636l-2.8,5.007,5.074,2.838Z" transform="translate(-589.511 -5034.297)" fill="#3d3d3f"/>
</svg>
