<svg xmlns="http://www.w3.org/2000/svg" width="26.469" height="28.645" viewBox="0 0 26.469 28.645">
  <path id="icon4" d="M177.5,471.446c2.069,3.2,4.56,6.293,5.948,9.536l2.181-4.156c1.249-3.46-2.268-7.447-3.406-9.116Zm-13.807-5.53,5.106,3.1c1.9-3.316,3.538-7,5.747-9.677l-4.44-.443c-3.463.177-5.449,5.229-6.413,7.019m-2.438,12.727,1.958,4.283c1.95,3.071,7.013,2.247,8.945,2.195l-.183-6.277c-3.64,0-7.436.422-10.72-.2m18.176-18.1a2.91,2.91,0,0,0-3.2-1.274c-1.413.363-2.14,1.639-2.79,2.968l2.012,4.7c.042-.037-1.429.861-1.429.861l5.67.509,3.063-5.359-1.783.824s-1.036-2.2-1.539-3.228m-2.842,18.242c.011.053-.161-1.744-.161-1.744l-2.73,5.337,3.342,5.161.017-2.074s2.3-.124,3.386-.2a3.129,3.129,0,0,0,2.386-2.617c.261-1.525-.538-2.755-1.408-3.927Zm-12.443-.643,2.7-4.285c-.043-.015,1.432.857,1.432.857l-2.551-5.436H159.86l1.583,1.194s-1.213,2.091-1.77,3.089a3.366,3.366,0,0,0,.654,3.586c1.023,1.1,2.423,1.1,3.822,1" transform="translate(-159.428 -458.897)" fill="#89024f"/>
</svg>
