<svg xmlns="http://www.w3.org/2000/svg" xmlns:xlink="http://www.w3.org/1999/xlink" width="32.406" height="33.937" viewBox="0 0 32.406 33.937">
  <defs>
    <clipPath id="clip-path">
      <rect id="Rectangle_427" data-name="Rectangle 427" width="32.406" height="33.937" transform="translate(1476.567 105.075)" fill="none"/>
    </clipPath>
    <clipPath id="clip-path-2">
      <rect id="Rectangle_426" data-name="Rectangle 426" width="32.407" height="33.939" transform="translate(1476.567 105.074)" fill="none"/>
    </clipPath>
  </defs>
  <g id="icon10" transform="translate(-1476.567 -105.075)">
    <g id="Group_429" data-name="Group 429">
      <g id="Group_428" data-name="Group 428" clip-path="url(#clip-path)">
        <g id="Group_427" data-name="Group 427">
          <g id="Group_426" data-name="Group 426" clip-path="url(#clip-path-2)">
            <path id="Path_4613" data-name="Path 4613" d="M1508.973,121.918c0-3.229-9.689-4.4-16.2-4.4-1.469,0-3.1.063-4.746.192l-5.337-12.178a.765.765,0,0,0-1.4.615l5.133,11.711c-.551.06-1.1.124-1.635.2l-4.771-7.343a.765.765,0,1,0-1.282.834l4.407,6.78c-3.679.681-6.571,1.827-6.571,3.589,0,.933.83,1.691,2.143,2.3.067,8.3,6.25,14.791,14.137,14.791,7.911,0,14.11-6.525,14.139-14.866,1.221-.6,1.988-1.332,1.988-2.228m-2.17.861-1.115.36a48.656,48.656,0,0,1-11.628,1.828c-.424.008-.847.016-1.29.016-1.566,0-3-.055-4.323-.146a36.141,36.141,0,0,1-8.435-1.694l-1.31-.44v.055c-.524-.305-.8-.6-.8-.84,0-.677,2.044-1.722,6.009-2.4l2.155,3.316a.765.765,0,1,0,1.282-.834l-1.77-2.727c.445-.056.912-.108,1.4-.156l1.328,3.033a.767.767,0,0,0,.7.458.764.764,0,0,0,.7-1.071l-1.115-2.55c1.286-.084,2.673-.136,4.185-.136,9.762,0,14.87,2,14.87,3.067,0,.249-.289.547-.837.861" fill="#fff"/>
          </g>
        </g>
      </g>
    </g>
  </g>
</svg>
