<svg xmlns="http://www.w3.org/2000/svg" width="34.336" height="31.209" viewBox="0 0 34.336 31.209">
  <g id="icon9" transform="translate(-87.951 7.456)">
    <path id="Path_197215" data-name="Path 197215" d="M122.121,11.508,105.55-7.233a.663.663,0,0,0-.5-.223h0a.659.659,0,0,0-.495.225L88.116,11.51a.66.66,0,0,0,.5,1.1h1.922V23.753h29.1V12.607h1.995a.662.662,0,0,0,.5-1.1Zm-7.465-.223c.006.139.021.276.021.419a9.653,9.653,0,0,1-19.305,0c0-.142.016-.28.021-.419h-5.32L105.055-5.794l15.1,17.079Z" transform="translate(0 0)" fill="#fff"/>
    <path id="Path_197216" data-name="Path 197216" d="M98.318,3.838a5.6,5.6,0,0,0,1.424.734l.611.184c.251.065.5.123.752.181.54.126,1.043.244,1.537.385.259.074.487.145.7.22-.061-.128-.131-.254-.209-.381a5.8,5.8,0,0,0-2.567-2.224,4.546,4.546,0,0,0-1.539-.394c-.055,0-.115-.006-.176-.006a1.869,1.869,0,0,0-.811.158.569.569,0,0,0-.27.241.345.345,0,0,0,.006.28A1.579,1.579,0,0,0,98.318,3.838Zm.436-.918a.467.467,0,1,1-.467.467A.468.468,0,0,1,98.754,2.92Z" transform="translate(6.036 6.159)" fill="#fff"/>
    <path id="Path_197217" data-name="Path 197217" d="M100.96,6.238A5.711,5.711,0,0,0,99.517,5.5c-.192-.071-.4-.126-.595-.178s-.42-.1-.63-.152l-.158-.037c-.53-.123-1.01-.238-1.5-.377-.257-.073-.487-.144-.7-.218.061.126.131.254.207.38A5.732,5.732,0,0,0,97.7,6.567l.343.226a5.408,5.408,0,0,0,.666.346,4.593,4.593,0,0,0,1.539.394,2.088,2.088,0,0,0,.989-.154.565.565,0,0,0,.27-.239.355.355,0,0,0-.006-.278A1.561,1.561,0,0,0,100.96,6.238Zm-.529.917a.466.466,0,1,1,.466-.466A.467.467,0,0,1,100.432,7.154Z" transform="translate(4.924 7.391)" fill="#fff"/>
    <path id="Path_197218" data-name="Path 197218" d="M93.542,7.407c0,.015,0,.029,0,.044s0,.029,0,.044a8.036,8.036,0,0,0,16.072,0,.4.4,0,0,0,0-.044.4.4,0,0,0,0-.044,8.036,8.036,0,0,0-16.072,0Zm8.36,4.182c-.078,0-.15,0-.218-.006a5.433,5.433,0,0,1-1.84-.464,5.65,5.65,0,0,1-.87-.462c-.063-.039-.349-.238-.349-.238a6.645,6.645,0,0,1-1.746-1.87,4.958,4.958,0,0,1-.567-1.311,2.458,2.458,0,0,1-1.5-2.109l0-.188a.227.227,0,0,1,.065-.163.224.224,0,0,1,.162-.07l.411,0a.362.362,0,0,1,.163.065.227.227,0,0,1,.068.163l0,.186a1.33,1.33,0,0,0,.533,1.005A2.982,2.982,0,0,1,96.94,4.3a5.051,5.051,0,0,1,2.633-1.44l.184-.047a.236.236,0,0,1,.278.166l.1.4a.236.236,0,0,1-.026.175.226.226,0,0,1-.141.105l-.183.045a4.246,4.246,0,0,0-2.2,1.172,2.111,2.111,0,0,0-.535,1.5v.006H96.84l.217.008a.22.22,0,0,1-.081.205l-.008,0,.013.008a8.749,8.749,0,0,0,1.38.5c.478.137.962.249,1.447.362.3.07.554.129.81.2.146.036.293.076.435.121l.436.155a3.984,3.984,0,0,1,2.305,1.8,1.21,1.21,0,0,1-.019.95,1.409,1.409,0,0,1-.671.653A2.732,2.732,0,0,1,101.9,11.589Zm1.6-7.5a6.415,6.415,0,0,1,.868.461l.352.239a6.623,6.623,0,0,1,1.744,1.872,5,5,0,0,1,.569,1.311,2.453,2.453,0,0,1,1.5,2.109l0,.186a.229.229,0,0,1-.225.233l-.411,0h0a.236.236,0,0,1-.162-.065.233.233,0,0,1-.068-.162l0-.188a1.33,1.33,0,0,0-.532-1,2.984,2.984,0,0,1-.727,1.822,5.056,5.056,0,0,1-2.635,1.442l-.183.045a.215.215,0,0,1-.055.008.231.231,0,0,1-.223-.173l-.1-.4a.251.251,0,0,1,.026-.175.228.228,0,0,1,.142-.105l.181-.045a4.252,4.252,0,0,0,2.2-1.172,2.128,2.128,0,0,0,.535-1.5V8.823h.217l-.217-.006a.216.216,0,0,1,.082-.205l.008,0-.015-.008a8.865,8.865,0,0,0-1.382-.5c-.478-.136-.962-.249-1.445-.362l-.1-.021c-.238-.057-.478-.112-.716-.173-.144-.037-.291-.078-.436-.121-.006,0-.373-.133-.443-.16a3.822,3.822,0,0,1-2.3-1.8,1.206,1.206,0,0,1,.019-.949,1.4,1.4,0,0,1,.671-.655,2.917,2.917,0,0,1,1.418-.242A5.472,5.472,0,0,1,103.5,4.087Z" transform="translate(3.447 4.209)" fill="#fff"/>
  </g>
</svg>
