<svg xmlns="http://www.w3.org/2000/svg" width="11.248" height="11.248" viewBox="0 0 11.248 11.248">
  <g id="instagram" transform="translate(697.448 -626.008)">
    <g id="Group_23746" data-name="Group 23746">
      <path id="Path_197165" data-name="Path 197165" d="M-691.824,630.514a1.119,1.119,0,0,0-1.118,1.118,1.119,1.119,0,0,0,1.118,1.118,1.119,1.119,0,0,0,1.118-1.118A1.119,1.119,0,0,0-691.824,630.514Z" fill="#4c313c"/>
      <path id="Path_197166" data-name="Path 197166" d="M-690.594,628.935h-2.46a1.469,1.469,0,0,0-1.467,1.467v2.46a1.469,1.469,0,0,0,1.467,1.467h2.46a1.468,1.468,0,0,0,1.467-1.467V630.4A1.469,1.469,0,0,0-690.594,628.935Zm-1.23,4.3a1.607,1.607,0,0,1-1.605-1.6,1.607,1.607,0,0,1,1.605-1.605,1.607,1.607,0,0,1,1.6,1.605A1.607,1.607,0,0,1-691.824,633.237Zm1.779-2.967a.418.418,0,0,1-.418-.417.418.418,0,0,1,.418-.418.418.418,0,0,1,.418.418A.418.418,0,0,1-690.045,630.27Z" fill="#4c313c"/>
      <path id="Path_197167" data-name="Path 197167" d="M-689.467,626.008h-4.714a3.267,3.267,0,0,0-3.267,3.267v4.714a3.267,3.267,0,0,0,3.267,3.267h4.714a3.267,3.267,0,0,0,3.267-3.267v-4.714A3.267,3.267,0,0,0-689.467,626.008Zm.815,6.854a1.944,1.944,0,0,1-1.942,1.942h-2.46A1.944,1.944,0,0,1-695,632.862V630.4a1.944,1.944,0,0,1,1.942-1.942h2.46a1.944,1.944,0,0,1,1.942,1.942Z" fill="#4c313c"/>
    </g>
  </g>
</svg>
