<svg xmlns="http://www.w3.org/2000/svg" width="29.571" height="29.571" viewBox="0 0 29.571 29.571">
  <path id="insta" d="M941.248,7052.137c-1.039-.047-1.352-.057-3.983-.057s-2.944.01-3.983.057c-2.673.122-3.919,1.389-4.04,4.04-.048,1.04-.059,1.352-.059,3.984s.011,2.943.058,3.983c.122,2.646,1.363,3.918,4.04,4.04,1.039.047,1.352.058,3.984.058s2.944-.01,3.983-.057c2.673-.122,3.918-1.391,4.04-4.04.046-1.04.057-1.352.057-3.983s-.011-2.944-.057-3.983c-.122-2.652-1.369-3.92-4.04-4.042m-3.983,13.085a5.062,5.062,0,1,1,5.061-5.061,5.061,5.061,0,0,1-5.061,5.061m5.262-9.14a1.183,1.183,0,1,1,1.182-1.182,1.183,1.183,0,0,1-1.182,1.182m-1.977,4.079a3.285,3.285,0,1,1-3.285-3.287,3.285,3.285,0,0,1,3.285,3.287m5.339-14.786H928.64a6.162,6.162,0,0,0-6.161,6.161v17.249a6.162,6.162,0,0,0,6.161,6.161h17.249a6.161,6.161,0,0,0,6.161-6.161v-17.249a6.161,6.161,0,0,0-6.161-6.161m1.173,18.849c-.163,3.584-2.157,5.57-5.733,5.734-1.052.048-1.387.059-4.064.059s-3.012-.011-4.064-.059c-3.583-.164-5.569-2.154-5.734-5.734-.048-1.051-.059-1.387-.059-4.063s.011-3.013.059-4.064c.165-3.583,2.154-5.57,5.734-5.733,1.052-.049,1.386-.06,4.064-.06s3.012.011,4.064.059c3.583.164,5.573,2.157,5.733,5.733.048,1.052.059,1.389.059,4.065s-.011,3.012-.059,4.063" transform="translate(-922.479 -7045.375)" fill="#fff"/>
</svg>
