<svg xmlns="http://www.w3.org/2000/svg" width="18.167" height="21.8" viewBox="0 0 18.167 21.8">
  <path id="Path_197194" data-name="Path 197194" d="M14.2,8.006C14.933,5.024,15.336,0,12.2,0c-1.69,0-2.135,1.515-2.573,3.024C7.84,9.19,4.8,9.693,2,10.057v9.018a16.654,16.654,0,0,1,7.42,1.673A12.047,12.047,0,0,0,14.267,21.8c2.305,0,3.9-.906,4.55-3.348a62.807,62.807,0,0,0,1.35-7.494,2.21,2.21,0,0,0-2.356-2.277A11.672,11.672,0,0,1,14.2,8.006Zm3.377,3.925-1.266.152s-.553,1.007.128,1.013c0,0,.183.009.971-.025.983-.042.955,1.334,0,1.42l-1.6.09a.536.536,0,0,0,.128,1.065s.623-.015,1.038-.037c.97-.051.923,1.3.036,1.409-.385.048-1.585.1-1.585.1a.522.522,0,1,0,.1,1.036l.7-.028c.747-.067.911.749-.265,1.509-1.423.8-4.256.119-5.828-.558a17.114,17.114,0,0,0-6.32-1.822v-5.45c2.964-.68,5.749-2.047,7.558-8.278C12.191.722,12.9,1.777,12.9,4.052a19.974,19.974,0,0,1-.837,5.026,14.861,14.861,0,0,0,5.559,1.413C18.581,10.545,18.554,11.813,17.576,11.931Z" transform="translate(-2)" fill="#fff"/>
</svg>
