<svg xmlns="http://www.w3.org/2000/svg" xmlns:xlink="http://www.w3.org/1999/xlink" width="21.807" height="21.807" viewBox="0 0 21.807 21.807">
  <defs>
    <clipPath id="clip-path">
      <rect width="21.807" height="21.807" fill="none"/>
    </clipPath>
  </defs>
  <g id="Repeat_Grid_2" data-name="Repeat Grid 2" clip-path="url(#clip-path)">
    <g transform="translate(-745.527 -172.857)">
      <path id="Path_197197" data-name="Path 197197" d="M10.9,0A5.42,5.42,0,0,0,5.452,5.181c0,4.254,4.346,4.7,5.452,11.174,1.106-6.47,5.452-6.92,5.452-11.174A5.419,5.419,0,0,0,10.9,0Zm0,7.269a1.817,1.817,0,1,1,1.817-1.817A1.817,1.817,0,0,1,10.9,7.269Zm10.9,14.538L15.713,19.6,10.9,21.807,5.832,19.6,0,21.807l3.634-8.178,3.6-1.439A10.337,10.337,0,0,1,8.2,13.761L5,15.042,3.428,18.568l2.428-.918,1.368-2.441-.577,2.766L10.454,19.6l.45-1.836.423,1.839L15.1,17.885l-.562-2.756,1.428,2.631,2.482.9-1.58-3.614-3.254-1.286a10.174,10.174,0,0,1,.965-1.573l3.654,1.443Z" transform="translate(745.527 172.857)" fill="#fff"/>
    </g>
  </g>
</svg>
