<svg xmlns="http://www.w3.org/2000/svg" width="27.819" height="28.779" viewBox="0 0 27.819 28.779">
  <path id="Path_173862" data-name="Path 173862" d="M13.909,2.4A11.81,11.81,0,0,1,25.5,14.39,11.81,11.81,0,0,1,13.909,26.381,11.81,11.81,0,0,1,2.318,14.39,11.81,11.81,0,0,1,13.909,2.4Zm0-2.4A14.156,14.156,0,0,0,0,14.39a14.156,14.156,0,0,0,13.909,14.39A14.156,14.156,0,0,0,27.819,14.39,14.156,14.156,0,0,0,13.909,0Zm4.636,20.385H9.273V13.19h9.273ZM11.591,13.19v-2.4a2.32,2.32,0,1,1,4.636,0v2.4h1.159v-2.4a3.479,3.479,0,1,0-6.955,0v2.4Z" fill="#000"/>
</svg>
