<svg xmlns="http://www.w3.org/2000/svg" width="172.164" height="172.154" viewBox="0 0 172.164 172.154">
  <g id="logo1" transform="translate(-421.234 -65.536)">
    <ellipse id="Ellipse_581" data-name="Ellipse 581" cx="86.082" cy="86.077" rx="86.082" ry="86.077" transform="translate(421.234 65.536)" fill="#89024f"/>
    <g id="Group_415" data-name="Group 415">
      <g id="Group_412" data-name="Group 412" opacity="0.5">
        <text id="寿司を堪能する" transform="translate(540.18 189.971)" fill="#fff" font-size="10.175" font-family="KozGoPr6N-Regular, Kozuka Gothic Pr6N" letter-spacing="0.05em"><tspan x="-37.039" y="0">寿司を堪能する</tspan></text>
      </g>
      <g id="Group_413" data-name="Group 413">
        <path id="Path_4595" data-name="Path 4595" d="M479,111.159a12.012,12.012,0,0,1,3.012-8.461c2.946-3.365,7.529-5.249,11.768-6.326l.922-.234-.513-2.02-.922.234c-4.677,1.187-9.579,3.268-12.824,6.973a14.051,14.051,0,0,0-3.531,9.162q.968.439,2.093.832C479,111.266,479,111.212,479,111.159Z" fill="#fff"/>
        <path id="Path_4596" data-name="Path 4596" d="M505.325,126.531a1.21,1.21,0,1,0,1.21,1.21A1.209,1.209,0,0,0,505.325,126.531Z" fill="#fff"/>
        <path id="Path_4597" data-name="Path 4597" d="M513.357,128.644c-1.524-4.028-7.013-6.875-11.03-8.471l-2.169-.78c-.714-.222-1.438-.417-2.156-.6-1.36-.351-2.73-.667-4.1-.986-2.482-.577-4.964-1.158-7.416-1.857a46.016,46.016,0,0,1-7.264-2.634l-2.258-1.228c-2.668-1.659-4.92-3.978-4.969-7.361l-.013-.948-2.084.025.013.953c.069,4.808,3.528,7.9,7.474,9.969a23.629,23.629,0,0,0,2.886,6.848,32.479,32.479,0,0,0,8.539,9.166s1.437.988,1.754,1.195a28.435,28.435,0,0,0,4.255,2.257,26.793,26.793,0,0,0,8.962,2.268,13.467,13.467,0,0,0,6.638-1.112,6.021,6.021,0,0,0,2.877-2.772A4.982,4.982,0,0,0,513.357,128.644Zm-1.951,3.055a4.01,4.01,0,0,1-1.915,1.782,11.516,11.516,0,0,1-5.609.9,24.786,24.786,0,0,1-8.236-2.1,28.258,28.258,0,0,1-3.566-1.857l-1.774-1.174a30.418,30.418,0,0,1-8.253-8.759,22.723,22.723,0,0,1-2.168-4.593,53.581,53.581,0,0,0,5.977,2.044c2.5.715,5.035,1.309,7.57,1.9,1.349.314,2.7.626,4.043.972a32.347,32.347,0,0,1,3.139.94,30.445,30.445,0,0,1,7.636,3.933,9.29,9.29,0,0,1,3.158,3.7A2.931,2.931,0,0,1,511.406,131.7Z" fill="#fff"/>
        <path id="Path_4598" data-name="Path 4598" d="M528.309,123.582a12.015,12.015,0,0,1-3.012,8.462c-2.946,3.365-7.53,5.249-11.769,6.325l-.922.234.513,2.021.922-.234c4.677-1.188,9.58-3.268,12.824-6.974a14.044,14.044,0,0,0,3.532-9.161q-.969-.439-2.094-.832Z" fill="#fff"/>
        <path id="Path_4599" data-name="Path 4599" d="M537.4,129.987c-.068-4.808-3.528-7.9-7.473-9.97a23.625,23.625,0,0,0-2.887-6.847A32.449,32.449,0,0,0,518.5,104l-1.755-1.195a30.537,30.537,0,0,0-4.255-2.257,26.812,26.812,0,0,0-8.962-2.269,13.48,13.48,0,0,0-6.638,1.112,6.026,6.026,0,0,0-2.876,2.773,4.986,4.986,0,0,0-.06,3.93c1.525,4.028,7.029,6.836,11.031,8.47.341.139,2.169.781,2.169.781.713.222,1.438.417,2.156.6,1.36.351,2.73.667,4.1.985,2.483.578,4.964,1.159,7.416,1.857a45.943,45.943,0,0,1,7.264,2.634l2.258,1.229c2.669,1.659,4.921,3.978,4.969,7.36l.014.949,2.084-.025ZM521.447,116.8c-2.5-.715-5.035-1.308-7.569-1.9-1.35-.314-2.7-.626-4.043-.972-.333-.086-.668-.174-1-.266l-2.237-.712a30.206,30.206,0,0,1-7.536-3.9,9.286,9.286,0,0,1-3.158-3.7,2.929,2.929,0,0,1,0-2.317,4.015,4.015,0,0,1,1.915-1.782,11.5,11.5,0,0,1,5.609-.9,24.779,24.779,0,0,1,8.236,2.1,30.606,30.606,0,0,1,13.594,11.79,22.751,22.751,0,0,1,2.168,4.593A53.4,53.4,0,0,0,521.447,116.8Z" fill="#fff"/>
        <path id="Path_4600" data-name="Path 4600" d="M501.984,105.791A1.21,1.21,0,1,0,503.2,107,1.209,1.209,0,0,0,501.984,105.791Z" fill="#fff"/>
      </g>
      <g id="Group_414" data-name="Group 414">
        <path id="Path_4601" data-name="Path 4601" d="M439.314,165.088c0,3.5.128,5.548.9,6.529a2.31,2.31,0,0,0,1.963.939,2.4,2.4,0,0,0,1.963-.853,3.735,3.735,0,0,0,.726-2.561h3.457a6.883,6.883,0,0,1-1.793,4.908,5.793,5.793,0,0,1-4.353,1.622,5.5,5.5,0,0,1-4.4-1.707c-1.665-1.75-1.964-5.079-1.964-9.688,0-4.652.3-7.938,1.921-9.688a6.405,6.405,0,0,1,8.707,0c1.664,1.75,1.963,5.036,1.963,10.5Zm4.738-8.194a2.287,2.287,0,0,0-1.964-.9,2.2,2.2,0,0,0-1.92.9c-.683.811-.854,2.39-.854,5.591H444.9C444.9,159.284,444.734,157.705,444.052,156.894Z" fill="#fff"/>
        <path id="Path_4602" data-name="Path 4602" d="M461.124,175.33V159.07c0-2.005-1.2-3.03-2.646-3.03s-2.6,1.025-2.6,3.03v16.26h-3.457V153.224h3.33v1.707a4.629,4.629,0,0,1,1.365-1.366,4.475,4.475,0,0,1,2.39-.683,4.632,4.632,0,0,1,3.756,1.622c.9.982,1.323,2.177,1.323,4.566v16.26Z" fill="#fff"/>
        <path id="Path_4603" data-name="Path 4603" d="M470.77,182.244a7.091,7.091,0,0,1-4.823,1.366v-3.116c2.134,0,3.329-.853,3.329-3.328V153.224h3.457v24.07A5.968,5.968,0,0,1,470.77,182.244ZM468.977,149.3v-4.011h4.055V149.3Z" fill="#fff"/>
        <path id="Path_4604" data-name="Path 4604" d="M487.885,173.623a5.431,5.431,0,0,1-4.7,2.049,5.35,5.35,0,0,1-4.652-2.049c-1.366-1.749-1.622-4.865-1.622-9.346s.256-7.6,1.622-9.346a5.35,5.35,0,0,1,4.652-2.049,5.431,5.431,0,0,1,4.7,2.049c1.365,1.75,1.579,4.865,1.579,9.346S489.25,171.874,487.885,173.623Zm-2.732-16.686A2.369,2.369,0,0,0,483.19,156a2.29,2.29,0,0,0-1.921.939c-.811,1.109-.9,3.371-.9,7.34s.085,6.231.9,7.34a2.29,2.29,0,0,0,1.921.939,2.369,2.369,0,0,0,1.963-.939c.811-1.109.854-3.371.854-7.34S485.964,158.046,485.153,156.937Z" fill="#fff"/>
        <path id="Path_4605" data-name="Path 4605" d="M499.238,178.873c-.939,3.969-3.67,4.737-7.34,4.737v-3.073c2.134,0,3.457-.555,3.969-2.561l.682-2.688-5.377-22.064h3.8l3.371,16.6,3.329-16.6h3.8Z" fill="#fff"/>
        <path id="Path_4606" data-name="Path 4606" d="M518.957,174.007a5.7,5.7,0,0,1-4.14,1.665,5.4,5.4,0,0,1-3.97-1.537,6.4,6.4,0,0,1-1.707-4.694h2.39a4.2,4.2,0,0,0,1.11,3.2,3.035,3.035,0,0,0,2.177.9,3.34,3.34,0,0,0,2.475-.982,3.714,3.714,0,0,0,.982-2.688,4.28,4.28,0,0,0-.6-2.348,5.661,5.661,0,0,0-2.176-1.877l-2.732-1.494a7.618,7.618,0,0,1-2.817-2.561,5.6,5.6,0,0,1-.6-2.731,5.729,5.729,0,0,1,1.707-4.1,5.382,5.382,0,0,1,3.884-1.493,5.214,5.214,0,0,1,3.884,1.451,6.309,6.309,0,0,1,1.579,4.694h-2.391a4.066,4.066,0,0,0-.938-3.158,2.8,2.8,0,0,0-2.134-.854,3.065,3.065,0,0,0-2.262.811,3.537,3.537,0,0,0-.939,2.561,3.715,3.715,0,0,0,.426,1.878,5.143,5.143,0,0,0,2.006,1.621l2.689,1.537a7.391,7.391,0,0,1,2.945,2.56,6.547,6.547,0,0,1,.854,3.414A5.958,5.958,0,0,1,518.957,174.007Z" fill="#fff"/>
        <path id="Path_4607" data-name="Path 4607" d="M533,175.33v-1.749a4.62,4.62,0,0,1-1.238,1.323,4.268,4.268,0,0,1-2.475.768,4.442,4.442,0,0,1-3.415-1.451c-.854-.9-1.323-2.134-1.323-4.311v-16.3h2.39v16.345c0,2.39,1.323,3.542,2.988,3.542s3.03-1.152,3.03-3.542V153.608h2.39V175.33Z" fill="#fff"/>
        <path id="Path_4608" data-name="Path 4608" d="M549.217,174.007a5.7,5.7,0,0,1-4.14,1.665,5.4,5.4,0,0,1-3.969-1.537,6.4,6.4,0,0,1-1.707-4.694h2.39a4.2,4.2,0,0,0,1.11,3.2,3.032,3.032,0,0,0,2.176.9,3.338,3.338,0,0,0,2.475-.982,3.71,3.71,0,0,0,.982-2.688,4.279,4.279,0,0,0-.6-2.348,5.672,5.672,0,0,0-2.177-1.877l-2.731-1.494a7.611,7.611,0,0,1-2.817-2.561,5.6,5.6,0,0,1-.6-2.731,5.729,5.729,0,0,1,1.707-4.1,5.384,5.384,0,0,1,3.884-1.493,5.213,5.213,0,0,1,3.884,1.451,6.309,6.309,0,0,1,1.579,4.694h-2.39a4.062,4.062,0,0,0-.939-3.158,2.8,2.8,0,0,0-2.134-.854,3.066,3.066,0,0,0-2.262.811,3.537,3.537,0,0,0-.939,2.561,3.7,3.7,0,0,0,.427,1.878,5.134,5.134,0,0,0,2.006,1.621l2.689,1.537a7.4,7.4,0,0,1,2.945,2.56,6.556,6.556,0,0,1,.853,3.414A5.958,5.958,0,0,1,549.217,174.007Z" fill="#fff"/>
        <path id="Path_4609" data-name="Path 4609" d="M563.388,175.33V158.985c0-2.39-1.324-3.542-2.988-3.542s-3.03,1.152-3.03,3.542V175.33h-2.39V144.944h2.39v10.371a4.307,4.307,0,0,1,1.2-1.28,4.258,4.258,0,0,1,2.475-.768,4.479,4.479,0,0,1,3.415,1.493c.853.9,1.323,2.091,1.323,4.268v16.3Z" fill="#fff"/>
        <path id="Path_4610" data-name="Path 4610" d="M570.558,148.615v-3.073h3.073v3.073Zm.342,26.715V153.608h2.39V175.33Z" fill="#fff"/>
      </g>
    </g>
  </g>
</svg>
