<svg xmlns="http://www.w3.org/2000/svg" width="72.804" height="72.806" viewBox="0 0 72.804 72.806">
  <g id="logo4" transform="translate(1008.866 -576.564)">
    <path id="Path_4667" data-name="Path 4667" d="M-972.465,647.723a34.756,34.756,0,0,1-34.756-34.755,34.757,34.757,0,0,1,34.756-34.758,34.756,34.756,0,0,1,34.757,34.758,34.756,34.756,0,0,1-34.757,34.755m0-71.159a36.4,36.4,0,0,0-36.4,36.4,36.4,36.4,0,0,0,36.4,36.4,36.4,36.4,0,0,0,36.4-36.4,36.4,36.4,0,0,0-36.4-36.4" fill="#fff"/>
    <path id="Path_4668" data-name="Path 4668" d="M-968.229,585.809c.051.48.1,1.013.5,1.065s.652-.361.736-1.168a16.951,16.951,0,0,1,.362-1.838c.05-.291,0-.773-.413-.807s-.584.584-.841.841a2.139,2.139,0,0,1-1.116.4l-.034.892s.755.138.807.619" fill="#fff"/>
    <path id="Path_4669" data-name="Path 4669" d="M-966.375,581.894c.515.875.412,1.649.876,1.751s.651-.275.807-.961.463-1.855.463-1.855-2.18-.532-4.052-.892l-.12.961s1.511.12,2.026,1" fill="#fff"/>
    <path id="Path_4670" data-name="Path 4670" d="M-962.493,582.444c.359.326.892,2.1,1.373,4.722a29.436,29.436,0,0,1,.344,5.666l1.664,1.2,1.992-2.593s.034-2.146-.136-4.121a41.474,41.474,0,0,0-.619-4.122,37.75,37.75,0,0,0-4.756-2.026c-.636-.1-.761.207-.773.464-.016.4.55.481.911.808" fill="#fff"/>
    <path id="Path_4671" data-name="Path 4671" d="M-957.514,594.377c-.241.068-.533.292-.017.875s2.455,2.491,2.455,2.491l7.521-6.543s-2.817-2.866-3.281-3.331-.885-.436-1.029-.24c-.189.258.034.583.24.824s.155.4.155.4-4.706,5.22-5.048,5.6-.757-.136-1-.068" fill="#fff"/>
    <path id="Path_4672" data-name="Path 4672" d="M-993.61,588.247a.42.42,0,0,1,.567-.085c.155.12,4.619,5.529,4.791,5.752a.594.594,0,0,1,.154.378c-.154.188-.411.481-.223.738a.64.64,0,0,0,.79.121c.188-.121.772-.653,1.253-1.031a12.8,12.8,0,0,1,1.666-1.15c.394-.189.6-.585.5-.756a.573.573,0,0,0-.686-.189.543.543,0,0,1-.722-.206c-.19-.274-4.465-7.126-4.465-7.126a39.758,39.758,0,0,0-4.1,2.919c-.241.241-.361.412-.205.67s.481.154.686-.035" fill="#fff"/>
    <path id="Path_4673" data-name="Path 4673" d="M-988.115,584.693c.223.069.479.412.875,1.047s1.082,1.821.842,2.01-.6.532-.6.532l.48.772s.548-.325.874-.051a13.112,13.112,0,0,1,1.169,1.854,2.077,2.077,0,0,0,2.609.876c1.17-.567,1.444-1.03,1.6-1.718s-.033-.909-.326-.892-.344.275-.446.446-.256.207-.394-.223-.483-2.061-1.46-2.111a4.678,4.678,0,0,0-1.837.308s2.214-1.357,1.443-3.383-3.177-1.287-3.882-1.064a14.042,14.042,0,0,0-2.18,1.185l.412.755s.6-.412.824-.343" fill="#fff"/>
    <path id="Path_4674" data-name="Path 4674" d="M-993.781,594.824s.068-.034.274-.171a1.092,1.092,0,0,1,.927-.017c.225.138.7.326.927.172a.413.413,0,0,0,.1-.653c-.2-.241-1.579-1.562-2.008-1.974s-.859-.533-1.15-.1.154.7.446,1.116-.223,1.013-.223,1.013Z" fill="#fff"/>
    <path id="Path_4675" data-name="Path 4675" d="M-956.587,588.745l.085,1.785s2.146-2.867,2.386-3.194.6-.189.859-.1.739.4.945.12.171-.5-.188-.876a19.609,19.609,0,0,0-2.387-1.63.564.564,0,0,0-.79.119c-.1.189.05.55.293.755a1.077,1.077,0,0,1,.2,1.288,9.568,9.568,0,0,1-1.406,1.735" fill="#fff"/>
    <path id="Path_4676" data-name="Path 4676" d="M-981.537,581.825c.308-.052.806,1.3,1.116,2.559s1.27,5.014,1.27,5.014a1.606,1.606,0,0,0-.549.583.353.353,0,0,0,.413.5c.343-.051.892-.206,1.612-.36s1.272-.19,2.009-.292.671-.223.671-.429-.052-.481-.207-.5a5.365,5.365,0,0,0-.6.018c-.258-1.374-1-7.47-1.014-7.795s.172-.344.378-.362.446-.085.479-.309-.051-.6-.96-.514a40.135,40.135,0,0,0-4.961.962c-.516.223-.548.456-.464.737s.5.241.807.189" fill="#fff"/>
    <path id="Path_4677" data-name="Path 4677" d="M-973.982,580.572c.308.1.343.326.378.686s.188,5.564.206,6.3-.138,1.031-.344,1.1-.566.241-.428.652.84.224,1.629.172a15.193,15.193,0,0,1,2.355.189l1.063-9.753s-3.623-.24-4.516-.257-1.112.157-1.15.429c-.052.377.5.377.807.481" fill="#fff"/>
    <path id="Path_4678" data-name="Path 4678" d="M-962.151,585.449l-.5-1.461s-1.544,4.413-1.75,5-.533.824-.791.859-.584-.051-.7.24-.036.412.273.55.892.274,1.476.515.774.292.945.069.017-.5-.206-.7-.5-.481-.341-.842,1.595-4.223,1.595-4.223" fill="#fff"/>
    <path id="Path_4679" data-name="Path 4679" d="M-947.378,626.306a1.041,1.041,0,0,1,.821-.534c.57-.036,1.124.142,1.248-.143s.284-.534-.446-.891-1.889-.892-2.228-1.069a.6.6,0,0,0-.8.2c-.126.214.088.552.39.819a1.059,1.059,0,0,1,.2,1.142Z" fill="#fff"/>
    <path id="Path_4680" data-name="Path 4680" d="M-947.453,592.8a.818.818,0,0,1-.19.876c-.205.24-3.193,2.576-4.154,3.348s-1.254.945-1.494.979-.687-.446-.687-.446l-.67.652a5,5,0,0,0,5.547,1.6,4.676,4.676,0,0,0,3.452-4.738,5.526,5.526,0,0,0-1.391-3.178l-.671.533s.1.137.258.377" fill="#fff"/>
    <path id="Path_4681" data-name="Path 4681" d="M-983.542,637c.053.34.536.91.946.3a11.741,11.741,0,0,0,1.14-2.78s-1.461-.625-1.659-.749l-.461.641s.533.659.426,1.07a6.042,6.042,0,0,0-.392,1.514" fill="#fff"/>
    <path id="Path_4682" data-name="Path 4682" d="M-948.411,622.011c-.481-.232-2.085-.8-2.085-.8l-1.229,2.584.8.357a2.491,2.491,0,0,1,1.337-1.213c.571-.249,1.1.036,1.48-.088s.177-.607-.3-.838" fill="#fff"/>
    <path id="Path_4683" data-name="Path 4683" d="M-966.357,587.182c-.31-.137-.515.43-.927.893a2.327,2.327,0,0,1-2.235.842l-.067.858s2.077.464,2.936.687c0,0,.549-1.9.652-2.4s-.051-.738-.359-.876" fill="#fff"/>
    <path id="Path_4684" data-name="Path 4684" d="M-953.989,630.656c.41.212.82.373,1.016.231a.5.5,0,0,0,.142-.624,17.98,17.98,0,0,0-1.748-1.6c-.373-.3-.639-.392-.818-.16a.4.4,0,0,0,0,.552.265.265,0,0,1-.038.321,12.281,12.281,0,0,0-1.674.8l.481.766a2.493,2.493,0,0,1,2.639-.284" fill="#fff"/>
    <path id="Path_4685" data-name="Path 4685" d="M-964.629,636.288c.516.267.927.856,1.3.981s.7-.144.587-.5-1.088-2.335-1.088-2.335a26.6,26.6,0,0,1-2.637.945l.249.82a3.362,3.362,0,0,1,1.588.089" fill="#fff"/>
    <path id="Path_4686" data-name="Path 4686" d="M-989.726,633.276c.428.035.874-.643,1.336-.945a1.3,1.3,0,0,1,1.017-.124l.57-.75c-.41-.3-1.605-1.157-1.605-1.157s-1.176,1.3-1.674,1.888-.071,1.051.356,1.088" fill="#fff"/>
    <path id="Path_4687" data-name="Path 4687" d="M-992.525,625.29l-.82.517a5.358,5.358,0,0,1,.535,1.2,1.7,1.7,0,0,1-.213,1.354c-.251.286-.553.552-.374.82a.433.433,0,0,0,.711.125c.321-.232,1.925-1.694,1.925-1.694a23.327,23.327,0,0,1-1.764-2.317" fill="#fff"/>
    <path id="Path_4688" data-name="Path 4688" d="M-951.886,631.618c-1.283.036-3.512,1.123-4.3,1.3s-1.3-.464-1.158-.926a1.383,1.383,0,0,1,.481-.7l-.607-.731c-1.229.7-2.085,3.191-1.318,4.4a2.757,2.757,0,0,0,3.172,1.354c1.267-.232,2.728-.927,3.69-1s.963.428.909.945a2.62,2.62,0,0,1-.7,1.158l.571.7a5.633,5.633,0,0,0,2-4.3,2.37,2.37,0,0,0-2.744-2.21" fill="#fff"/>
    <path id="Path_4689" data-name="Path 4689" d="M-970.619,636.091a.437.437,0,0,0-.285.393c0,.2-.037.357.32.445s.481.2.536.482.766,7.129.766,7.129a.763.763,0,0,1-.447.2c-.319.054-.569.16-.569.411s.213.517.838.481,4.616-.784,4.616-.784l-2.192-9.251a31.305,31.305,0,0,1-3.583.5" fill="#fff"/>
    <path id="Path_4690" data-name="Path 4690" d="M-953.918,638.338a3.087,3.087,0,0,1-2.193-.927c-.266-.214-.659-.019-.712.427a6.386,6.386,0,0,0,1.211,2.335c.356.446.536.462.891.285s.519-.409.519-.57a.507.507,0,0,1,.142-.3,9.681,9.681,0,0,0,2.423-1.051l-.589-.75a4.874,4.874,0,0,1-1.692.554" fill="#fff"/>
    <path id="Path_4691" data-name="Path 4691" d="M-963.489,641.368c.374.142.569-.357.569-.589s-.479-1.6-.677-2.317-.481-1.016-.908-.837-.267.464-.233.873-.747.909-.747.909l.2.944a1.364,1.364,0,0,1,.874.161c.409.249.552.712.927.856" fill="#fff"/>
    <path id="Path_4692" data-name="Path 4692" d="M-961.762,640.637c-.373.107-.284.784-.391,1.194a2.6,2.6,0,0,1-1,1.3c-.481.321-1.069.7-1.069.7l.213.767,4.028-1.249s-.872-1.835-1-2.263a.571.571,0,0,0-.785-.445" fill="#fff"/>
    <path id="Path_4693" data-name="Path 4693" d="M-939.8,612.208c-.285,0-.393.16-.464.463a.869.869,0,0,1-.392.482c-1.925.855-8.341,1.675-8.341,1.675-.178,1.068-.57,2.869-.57,2.869-.107.445.535.446,1.3.428s5.08-.32,5.08-.32l-.446,1.961.838.6s.355-1.6.428-2.049.248-.66.357-.678.872-.018,1-.018.25.089.25.321.125.623.357.659.518-.178.588-.694.357-3.779.393-4.67-.089-1.034-.375-1.034" fill="#fff"/>
    <path id="Path_4694" data-name="Path 4694" d="M-953.936,627.161c-.106.161-.428.411-.177.642a.483.483,0,0,0,.677-.071c.106-.125.232-.3.374-.2s5.06,4.1,5.489,4.456.124.587.018.819,0,.731.393.677,1.175-1.051,1.764-2.032,1.426-2.334,1.426-2.334l-8.128-4.778a29.88,29.88,0,0,1-1.836,2.816" fill="#fff"/>
    <path id="Path_4695" data-name="Path 4695" d="M-940.943,620.638c-.445-.053-.5.3-.642.518s-.446.48-.712.338-3.939-2.888-3.939-2.888l-1.747.054s4.367,2.976,5.08,3.565.41,1.462.552,1.854.482.373.75.16a13.447,13.447,0,0,0,.837-2.549c.214-.624.267-1-.179-1.052" fill="#fff"/>
    <path id="Path_4696" data-name="Path 4696" d="M-944.739,624.31c.178.392.874.785.838,1.71a3.14,3.14,0,0,1-.446,1.855l.766.481a36.465,36.465,0,0,0,1.783-3.618s-1.854-.856-2.371-1.087-.747.267-.57.659" fill="#fff"/>
    <path id="Path_4697" data-name="Path 4697" d="M-971.848,644.9a.5.5,0,0,1-.446-.57c0-.16-.125-6.239-.089-6.648s.053-.57.286-.623.409-.143.444-.446-.339-.374-.339-.374c-.765.017-3.387-.125-3.742-.2s-.537.1-.588.3.053.3.355.463a.642.642,0,0,1,.322.7c-.018.267-.339,2.692-.339,2.692l-1.444-.09-.053.694,1.443.2s-.213,2.032-.321,2.78-.587.8-.748.8-.516-.035-.516.34.48.588,1.033.659,3.779.16,4.438.213.82-.142.856-.338-.125-.5-.552-.553" fill="#fff"/>
    <path id="Path_4698" data-name="Path 4698" d="M-987.428,641.1a.349.349,0,0,1,0-.481l3.708-7.147-2.655-1.676s-4.225,6.06-4.492,6.488a.589.589,0,0,1-.873.214c-.25-.143-.73-.374-.838-.107s-.108.516.356.891,4.331,2.708,4.6,2.869.552.321.785-.053-.357-.784-.59-1" fill="#fff"/>
    <path id="Path_4699" data-name="Path 4699" d="M-1003.932,617.092c.856-.214,6.238-1.088,6.648-1.07s.57.214.73.607l.874-.179a5.963,5.963,0,0,0-1.943-2.959,5.519,5.519,0,0,0-5.507-.463c-1.587.784-2.3,2.371-2.37,5.152l.783.016a1.057,1.057,0,0,1,.785-1.1" fill="#fff"/>
    <path id="Path_4700" data-name="Path 4700" d="M-994.307,627.8c-.213-.124-.464.144-.8.268s-.892-.5-.892-.5l-.711.445a1.123,1.123,0,0,1-.02,1.248,1.165,1.165,0,0,0-.3.963c.106.3.5.445.623.338s1.693-1.283,2.282-1.782.036-.856-.179-.981" fill="#fff"/>
    <path id="Path_4701" data-name="Path 4701" d="M-995.705,590.995a4.209,4.209,0,0,1,1.854.052c.4.052,1.271-.172.722-.773s-1.8-1.836-1.8-1.836a41.119,41.119,0,0,0-2.8,3.054l.671.62a2.686,2.686,0,0,1,1.356-1.117" fill="#fff"/>
    <path id="Path_4702" data-name="Path 4702" d="M-996.483,620.585a6.453,6.453,0,0,0,.785-3.511h-.856a1,1,0,0,1-.337.855c-.25.214-5.953,1.48-6.685,1.6s-1.07-.748-1.07-.748l-.676.32a5.73,5.73,0,0,0,2.441,3.44,5.1,5.1,0,0,0,6.4-1.96" fill="#fff"/>
    <path id="Path_4703" data-name="Path 4703" d="M-999.636,629.1c.339-.231,6.9-4.312,6.9-4.312a14.99,14.99,0,0,1-1.584-2.692c-.2-.553-.394-.767-.625-.588a.439.439,0,0,0-.2.517c.036.2-.053.357-.285.516s-5.662,2.634-6.024,2.817a.657.657,0,0,1-.945-.25c-.125-.267-.427-.428-.624-.285s-.356.356.07,1.069,2.051,3.689,2.228,4.011.429,1.1.91.873.2-.66,0-.945-.16-.5.178-.731" fill="#fff"/>
    <path id="Path_4704" data-name="Path 4704" d="M-1001.01,597.058c.136.034.514-.276.686-.413s.292-.222.429-.1,5.838,3.571,6.164,3.776.293.31.293.465-.138.445.033.6a.441.441,0,0,0,.636,0c.154-.2,2.336-3.4,2.524-3.639s-.121-.5-.361-.568-.411.138-.566.327a.278.278,0,0,1-.412.068c-.069-.068-6.645-5.459-6.645-5.459a28.725,28.725,0,0,0-2.919,4.121c-.378.686,0,.789.138.824" fill="#fff"/>
    <path id="Path_4705" data-name="Path 4705" d="M-978.6,644.361c-.25-.124-.232-.445-.177-.765s1.051-5.883,1.211-6.578.856-.356,1-.6-.089-.5-.284-.554-.785-.088-1.641-.3a19.335,19.335,0,0,1-2.014-.694c-.41-.145-.615.032-.676.285a.447.447,0,0,0,.248.48c.215.107.32.267.267.66s-1.906,5.6-2.138,6.256-.679.285-1.016.375-.516.587.25.979a31.256,31.256,0,0,0,4.563,1.3c.445.054.89.089.961-.285s-.3-.427-.552-.553" fill="#fff"/>
    <path id="Path_4706" data-name="Path 4706" d="M-941.429,581.407h-.561v-.955h.591c.309,0,.495,0,.556.012a.466.466,0,0,1,.286.148.444.444,0,0,1,.1.306.5.5,0,0,1-.075.282.414.414,0,0,1-.214.159,2.854,2.854,0,0,1-.683.048m1.17.825a1.8,1.8,0,0,0-.408-.317,1.19,1.19,0,0,0,.744-.347,1,1,0,0,0,.249-.7,1.078,1.078,0,0,0-.164-.592.852.852,0,0,0-.438-.36,2.71,2.71,0,0,0-.875-.1h-1.6v3.761h.76v-1.57h.152a1.272,1.272,0,0,1,.384.042.583.583,0,0,1,.229.157,5.507,5.507,0,0,1,.4.552l.55.819h.908l-.46-.734a4.487,4.487,0,0,0-.431-.61m-1,2.578a3.022,3.022,0,0,1-3.018-3.017,3.022,3.022,0,0,1,3.018-3.017,3.021,3.021,0,0,1,3.018,3.017,3.021,3.021,0,0,1-3.018,3.017m0-6.618a3.6,3.6,0,0,0-3.6,3.6,3.6,3.6,0,0,0,3.6,3.6,3.6,3.6,0,0,0,3.6-3.6,3.6,3.6,0,0,0-3.6-3.6" fill="#fff"/>
    <path id="Path_4707" data-name="Path 4707" d="M-978.837,624.923a93.36,93.36,0,0,0-10.443.425v-3.57a31.634,31.634,0,0,1,8.738-.745c3.038,0,10.018,1.065,13.375,1.545s10.5-.906,10.5-.906v3.836a44.286,44.286,0,0,1-6.873.907c-3.57.159-11.616-1.279-15.293-1.492m14.973,5.274c-3.41.853-7.141.054-10.338-.265a37.209,37.209,0,0,0-7.352.265v-2.4a30.25,30.25,0,0,1,9.8.106,28.88,28.88,0,0,0,7.886.16Zm-27.921-14.546a47.448,47.448,0,0,1,9.858-.852c4.583.213,13.214,1.226,16.784,1.492s11.936-.747,11.936-.747v4.05a89.623,89.623,0,0,1-12.788.267c-5.648-.427-13.588-1.226-16.891-1.226a83.282,83.282,0,0,0-8.9.8Zm20.088-18.543,9.059,16.3H-971.7Zm20.013,15.943a20.859,20.859,0,0,0-20.858-20.86h-.007V612.72h-13.214l11.837-20.479a20.858,20.858,0,0,0-19.478,20.81,20.861,20.861,0,0,0,20.862,20.86,20.859,20.859,0,0,0,20.858-20.86" fill="#fff"/>
  </g>
</svg>
