<svg xmlns="http://www.w3.org/2000/svg" width="80.45" height="80.446" viewBox="0 0 80.45 80.446">
  <path id="logo_orange" d="M1133.947,1722.266a2.471,2.471,0,0,0-2.148.945c-.631.808-.749,2.246-.749,4.315s.118,3.508.749,4.315a2.469,2.469,0,0,0,2.148.946,2.505,2.505,0,0,0,2.167-.946c.631-.807.729-2.246.729-4.315s-.1-3.507-.729-4.315A2.507,2.507,0,0,0,1133.947,1722.266Zm.906,8.649a1.094,1.094,0,0,1-.906.434,1.057,1.057,0,0,1-.887-.434c-.375-.512-.414-1.556-.414-3.389s.039-2.876.414-3.389a1.059,1.059,0,0,1,.887-.433,1.1,1.1,0,0,1,.906.433c.374.513.394,1.557.394,3.389S1135.227,1730.4,1134.853,1730.915Zm9.474-50.312a40.223,40.223,0,1,0,40.225,40.223A40.27,40.27,0,0,0,1144.327,1680.6Zm0,79.482a39.259,39.259,0,1,1,39.261-39.259A39.3,39.3,0,0,1,1144.327,1760.085Zm-3.385-30-1.556-7.665h-1.754l2.483,10.187-.316,1.241c-.236.926-.847,1.183-1.832,1.183v1.418c1.694,0,2.956-.354,3.389-2.187l2.877-11.842h-1.754Zm33.265,2.776h1.572v-10.5h-1.572Zm-46.822-12.254h1.872v-1.852h-1.872Zm.138,12.867c0,1.143-.552,1.537-1.537,1.537v1.438a3.273,3.273,0,0,0,2.226-.63,2.757,2.757,0,0,0,.907-2.286v-11.113h-1.6Zm-10.543-10.423a2.956,2.956,0,0,0-4.019,0c-.749.808-.887,2.325-.887,4.472,0,2.128.138,3.665.906,4.473a2.535,2.535,0,0,0,2.03.788,2.677,2.677,0,0,0,2.01-.748,3.179,3.179,0,0,0,.827-2.266h-1.6a1.726,1.726,0,0,1-.335,1.182,1.107,1.107,0,0,1-.906.394,1.067,1.067,0,0,1-.907-.434c-.354-.453-.413-1.4-.413-3.014h4.2C1117.887,1725.379,1117.749,1723.862,1116.98,1723.054Zm-3.29,3.645c0-1.478.078-2.207.394-2.581a1.018,1.018,0,0,1,.886-.414,1.056,1.056,0,0,1,.907.414c.315.374.394,1.1.394,2.581Zm17.693-23.789a4.213,4.213,0,0,0,.644.308l.347.092-.016-.41a4.983,4.983,0,0,1,1.234-3.639,10.232,10.232,0,0,1,5.306-2.842l.669-.17-.36-1.419-.669.169a11.632,11.632,0,0,0-6.048,3.3,6.13,6.13,0,0,0-1.6,4.2l0,.165.15.068C1131.151,1702.781,1131.265,1702.845,1131.383,1702.91Zm-8.373,19.356a2.064,2.064,0,0,0-1.1.315,2.138,2.138,0,0,0-.631.63v-.788h-1.537v10.207h1.6v-7.507c0-.926.532-1.4,1.2-1.4a1.234,1.234,0,0,1,1.222,1.4v7.507h1.6v-7.507a2.809,2.809,0,0,0-.611-2.109A2.138,2.138,0,0,0,1123.01,1722.266Zm21.156-12.417a.809.809,0,1,0,.81.809A.81.81,0,0,0,1144.166,1709.849Zm11.574-2.925a11.169,11.169,0,0,0-1.336-3.124,15.218,15.218,0,0,0-4.015-4.309l-.817-.556a14.454,14.454,0,0,0-2-1.061,12.561,12.561,0,0,0-4.223-1.067,6.534,6.534,0,0,0-3.191.54,3.019,3.019,0,0,0-1.444,1.4,2.541,2.541,0,0,0-.034,2.008c.569,1.505,2.33,2.869,5.232,4.055.162.065.979.352,1.022.367.355.111.708.2,1.007.282.587.151,1.177.288,1.767.425l.131.031c1.059.246,2.26.526,3.412.854a20.78,20.78,0,0,1,3.3,1.2l1.03.56a3.838,3.838,0,0,1,2.176,3.189l.01.688,1.464-.017-.01-.692C1159.2,1709.755,1158.024,1708.151,1155.74,1706.924Zm-4.061-1.557c-1.2-.342-2.426-.628-3.507-.879l-.152-.035c-.571-.133-1.142-.266-1.709-.412-.152-.04-.305-.08-.449-.12l-1.021-.324a13.451,13.451,0,0,1-3.416-1.764,4.09,4.09,0,0,1-1.375-1.6,1.105,1.105,0,0,1-.006-.876,1.634,1.634,0,0,1,.768-.7,5.116,5.116,0,0,1,2.463-.388,11.106,11.106,0,0,1,3.718.95,13.958,13.958,0,0,1,6.161,5.344,10.555,10.555,0,0,1,.784,1.546C1153.274,1705.854,1152.542,1705.614,1151.679,1705.367Zm11.9,21.738-1.24-.708a2.324,2.324,0,0,1-.839-.663,1.482,1.482,0,0,1-.165-.749,1.4,1.4,0,0,1,.365-1.017,1.176,1.176,0,0,1,.878-.306,1.049,1.049,0,0,1,.815.321,1.627,1.627,0,0,1,.37,1.3v.234h1.572v-.234a3.134,3.134,0,0,0-.8-2.333,2.625,2.625,0,0,0-1.959-.738,2.731,2.731,0,0,0-1.958.758,2.89,2.89,0,0,0-.857,2.057,2.8,2.8,0,0,0,.307,1.378,3.794,3.794,0,0,0,1.391,1.271l1.262.69a2.393,2.393,0,0,1,.918.785,1.738,1.738,0,0,1,.24.96,1.475,1.475,0,0,1-.385,1.075,1.31,1.31,0,0,1-.977.385,1.166,1.166,0,0,1-.839-.345,1.7,1.7,0,0,1-.444-1.313v-.234h-1.572v.234a3.19,3.19,0,0,0,.857,2.334,2.719,2.719,0,0,0,2,.778,2.868,2.868,0,0,0,2.077-.838,3,3,0,0,0,.857-2.116,3.264,3.264,0,0,0-.428-1.7A3.641,3.641,0,0,0,1163.579,1727.1Zm6.31-4.9a2.22,2.22,0,0,0-1.283.4c-.028.021-.095.073-.177.144v-4.388h-1.572v14.5h1.572v-7.781c0-.877.435-1.4,1.165-1.4s1.145.524,1.145,1.4v7.781h1.572V1725.1a2.847,2.847,0,0,0-.676-2.132A2.307,2.307,0,0,0,1169.889,1722.209Zm4.161-3.567v1.888h1.887v-1.888Zm-25.975-5.647a2.543,2.543,0,0,0,.034-2.009h0c-.727-1.921-3.248-3.266-5.242-4.058l-1.012-.364c-.361-.112-.728-.209-1.007-.281-.581-.15-1.167-.286-1.751-.422l-.147-.034c-1.057-.246-2.255-.525-3.412-.855a20.815,20.815,0,0,1-3.3-1.2l-1.029-.56a3.836,3.836,0,0,1-2.176-3.189l-.01-.688-1.464.017.01.692c.028,1.937,1.2,3.54,3.484,4.768a11.16,11.16,0,0,0,1.336,3.123,15.215,15.215,0,0,0,4.014,4.309s.668.458.815.555a13.488,13.488,0,0,0,2,1.062,12.511,12.511,0,0,0,4.223,1.067c.155.009.321.014.5.014a6.141,6.141,0,0,0,2.693-.553A3.024,3.024,0,0,0,1148.075,1712.995Zm-2.1.088a5.08,5.08,0,0,1-2.463.388,11.074,11.074,0,0,1-3.718-.95,12.66,12.66,0,0,1-1.607-.836l-.812-.537a13.713,13.713,0,0,1-3.742-3.97,10.661,10.661,0,0,1-.784-1.547c.663.255,1.395.495,2.259.742,1.2.342,2.425.628,3.507.88l.139.032c.575.134,1.151.268,1.722.415.468.121.964.256,1.425.426a13.543,13.543,0,0,1,3.461,1.781,4.1,4.1,0,0,1,1.375,1.6,1.1,1.1,0,0,1,.006.876h0A1.628,1.628,0,0,1,1145.978,1713.083Zm3.63,14.022-1.24-.708a2.324,2.324,0,0,1-.839-.663,1.481,1.481,0,0,1-.165-.749,1.4,1.4,0,0,1,.365-1.017,1.177,1.177,0,0,1,.879-.306,1.05,1.05,0,0,1,.814.321,1.628,1.628,0,0,1,.37,1.3v.234h1.572v-.234a3.134,3.134,0,0,0-.8-2.333,2.623,2.623,0,0,0-1.958-.738,2.732,2.732,0,0,0-1.959.758,2.891,2.891,0,0,0-.857,2.057,2.8,2.8,0,0,0,.307,1.378,3.794,3.794,0,0,0,1.391,1.271l1.262.69a2.385,2.385,0,0,1,.918.785,1.739,1.739,0,0,1,.24.96,1.48,1.48,0,0,1-.384,1.075,1.314,1.314,0,0,1-.978.385,1.162,1.162,0,0,1-.839-.345,1.7,1.7,0,0,1-.444-1.313v-.234h-1.572v.234a3.19,3.19,0,0,0,.857,2.334,2.719,2.719,0,0,0,2,.778,2.868,2.868,0,0,0,2.077-.838,3,3,0,0,0,.857-2.116,3.264,3.264,0,0,0-.428-1.7A3.634,3.634,0,0,0,1149.608,1727.1Zm-6.984-26.832a.81.81,0,1,0,.809.809A.811.811,0,0,0,1142.624,1700.273Zm5.268,15.049-.669.169.36,1.42.669-.17a11.642,11.642,0,0,0,6.048-3.3,5.988,5.988,0,0,0,1.686-4.1l0-.13-.1-.076a3.673,3.673,0,0,0-1.026-.523l-.346-.121.015.44a4.838,4.838,0,0,1-1.329,3.543A10.238,10.238,0,0,1,1147.892,1715.322Zm8.8,14.825c0,.877-.436,1.4-1.165,1.4s-1.145-.524-1.145-1.4v-7.781h-1.572v7.761a2.912,2.912,0,0,0,.676,2.152,2.3,2.3,0,0,0,1.746.743,2.206,2.206,0,0,0,1.272-.4,1.8,1.8,0,0,0,.208-.165v.4h1.552v-10.5h-1.572Z" transform="translate(-1104.102 -1680.603)" fill="#b18147"/>
</svg>
