<svg xmlns="http://www.w3.org/2000/svg" width="59.542" height="68.421" viewBox="0 0 59.542 68.421">
  <g id="logo3" transform="translate(1093.357 -577.685)">
    <g id="Group_597" data-name="Group 597">
      <path id="Path_4642" data-name="Path 4642" d="M-1091.817,636.365l-.439,1.13h-1.1l2.088-5.5h.81l2.032,5.5h-1.115l-.412-1.13Zm.905-2.8h-.015l-.589,1.947h1.271Z" fill="#fff"/>
      <path id="Path_4643" data-name="Path 4643" d="M-1081.67,634.646v.135c0,1.513-.775,2.857-2.437,2.857a2.627,2.627,0,0,1-2.553-2.8,2.665,2.665,0,0,1,2.616-2.844,2.31,2.31,0,0,1,2.116,1.28l-.921.5a1.363,1.363,0,0,0-1.223-.853c-1.009,0-1.506,1.031-1.506,1.919a1.694,1.694,0,0,0,1.513,1.876,1.26,1.26,0,0,0,1.22-1.216h-1.135v-.852Z" fill="#fff"/>
      <path id="Path_4644" data-name="Path 4644" d="M-1075.825,637.495h-1.265l-1.3-2.16h-.014v2.16h-1.047v-5.358h1.416c1.057,0,1.789.469,1.789,1.613a1.416,1.416,0,0,1-1.093,1.486Zm-2.578-2.892h.134c.575,0,.981-.171.981-.824s-.42-.789-.973-.789h-.142Z" fill="#fff"/>
      <path id="Path_4645" data-name="Path 4645" d="M-1072.735,637.495h-1.047v-5.358h1.047Z" fill="#fff"/>
      <path id="Path_4646" data-name="Path 4646" d="M-1066.69,633.557a1.549,1.549,0,0,0-1.181-.567,1.7,1.7,0,0,0-1.576,1.848,1.686,1.686,0,0,0,1.572,1.8,1.638,1.638,0,0,0,1.185-.568v1.242a2.792,2.792,0,0,1-1.216.321,2.7,2.7,0,0,1-2.621-2.78,2.726,2.726,0,0,1,2.644-2.864,2.5,2.5,0,0,1,1.193.314Z" fill="#fff"/>
      <path id="Path_4647" data-name="Path 4647" d="M-1064.326,632.137h1.045v3c0,.66.056,1.591.946,1.591s.943-.931.943-1.591v-3h1.046v3.2c0,1.308-.554,2.3-1.989,2.3s-1.991-.989-1.991-2.3Z" fill="#fff"/>
      <path id="Path_4648" data-name="Path 4648" d="M-1056.86,636.586h1.478v.909h-2.521v-5.358h1.043Z" fill="#fff"/>
      <path id="Path_4649" data-name="Path 4649" d="M-1051.815,637.495h-1.043v-4.449h-1.082v-.909h3.2v.909h-1.08Z" fill="#fff"/>
      <path id="Path_4650" data-name="Path 4650" d="M-1048.676,632.137h1.045v3c0,.66.057,1.591.946,1.591s.944-.931.944-1.591v-3h1.045v3.2c0,1.308-.555,2.3-1.989,2.3s-1.991-.989-1.991-2.3Z" fill="#fff"/>
      <path id="Path_4651" data-name="Path 4651" d="M-1038.63,637.495h-1.264l-1.3-2.16h-.015v2.16h-1.046v-5.358h1.415c1.058,0,1.79.469,1.79,1.613a1.417,1.417,0,0,1-1.093,1.486Zm-2.579-2.892h.134c.574,0,.981-.171.981-.824s-.418-.789-.972-.789h-.143Z" fill="#fff"/>
      <path id="Path_4652" data-name="Path 4652" d="M-1035.541,633.046v1.181h1.662v.91h-1.662v1.449h1.726v.909h-2.772v-5.358h2.772v.909Z" fill="#fff"/>
    </g>
    <g id="Group_598" data-name="Group 598">
      <path id="Path_4653" data-name="Path 4653" d="M-1092.909,640.521h1.3c.995,0,1.607.391,1.607,1.456a1.228,1.228,0,0,1-.469,1.038,1.264,1.264,0,0,1,.917,1.345c0,1.049-.74,1.518-1.713,1.518h-1.642Zm1.046,2.231h.126c.512,0,.761-.15.761-.7s-.313-.69-.754-.69h-.133Zm-.045,2.289h.219c.561,0,1.045-.072,1.045-.769s-.569-.724-1.1-.724h-.168Z" fill="#fff"/>
      <path id="Path_4654" data-name="Path 4654" d="M-1085.805,645.878h-1.045v-5.357h1.045Z" fill="#fff"/>
      <path id="Path_4655" data-name="Path 4655" d="M-1083.17,643.193a2.7,2.7,0,0,1,2.65-2.815,2.7,2.7,0,0,1,2.65,2.815,2.7,2.7,0,0,1-2.65,2.828A2.7,2.7,0,0,1-1083.17,643.193Zm1.079-.044a1.85,1.85,0,0,0,1.571,1.841,1.847,1.847,0,0,0,1.57-1.841,1.688,1.688,0,0,0-1.57-1.74A1.689,1.689,0,0,0-1082.091,643.149Z" fill="#fff"/>
      <path id="Path_4656" data-name="Path 4656" d="M-1074.184,644.969h1.478v.909h-2.523v-5.357h1.045Z" fill="#fff"/>
      <path id="Path_4657" data-name="Path 4657" d="M-1070.5,643.193a2.707,2.707,0,0,1,2.652-2.815,2.7,2.7,0,0,1,2.649,2.815,2.7,2.7,0,0,1-2.649,2.828A2.7,2.7,0,0,1-1070.5,643.193Zm1.082-.044a1.849,1.849,0,0,0,1.57,1.841,1.849,1.849,0,0,0,1.571-1.841,1.689,1.689,0,0,0-1.571-1.74A1.688,1.688,0,0,0-1069.417,643.149Z" fill="#fff"/>
      <path id="Path_4658" data-name="Path 4658" d="M-1057.823,643.03v.135c0,1.512-.775,2.856-2.438,2.856a2.627,2.627,0,0,1-2.552-2.8,2.664,2.664,0,0,1,2.617-2.843,2.312,2.312,0,0,1,2.117,1.279l-.925.5a1.357,1.357,0,0,0-1.222-.852c-1.008,0-1.507,1.029-1.507,1.918a1.7,1.7,0,0,0,1.516,1.877,1.263,1.263,0,0,0,1.221-1.216h-1.138v-.852Z" fill="#fff"/>
      <path id="Path_4659" data-name="Path 4659" d="M-1054.13,645.878h-1.046v-5.357h1.046Z" fill="#fff"/>
      <path id="Path_4660" data-name="Path 4660" d="M-1047.147,646.106l-.369-.448a2.42,2.42,0,0,1-1.331.363,2.7,2.7,0,0,1-2.65-2.828,2.706,2.706,0,0,1,2.65-2.815,2.706,2.706,0,0,1,2.651,2.815,3.162,3.162,0,0,1-.631,1.94l.731.867Zm-.463-1.834a1.847,1.847,0,0,0,.334-1.107,1.719,1.719,0,0,0-1.571-1.791,1.717,1.717,0,0,0-1.569,1.882,1.619,1.619,0,0,0,1.569,1.756,1.139,1.139,0,0,0,.563-.178l-.882-1.016,1.08-.086Z" fill="#fff"/>
      <path id="Path_4661" data-name="Path 4661" d="M-1043.583,640.521h1.044v3c0,.66.059,1.591.945,1.591s.946-.931.946-1.591v-3h1.045v3.2c0,1.308-.555,2.3-1.991,2.3s-1.989-.988-1.989-2.3Z" fill="#fff"/>
      <path id="Path_4662" data-name="Path 4662" d="M-1035.691,641.43v1.18h1.662v.91h-1.662v1.449h1.727v.909h-2.772v-5.357h2.772v.909Z" fill="#fff"/>
    </g>
    <g id="Group_599" data-name="Group 599">
      <path id="Path_4663" data-name="Path 4663" d="M-1057.857,611.8V623c2.633.214,10.483.641,10.483-5.758S-1057.857,611.8-1057.857,611.8Z" fill="#fff"/>
      <path id="Path_4664" data-name="Path 4664" d="M-1093.293,577.685v52h59.312v-52Zm28.11,49.048h-4.373v-7.68h-13.757a44.155,44.155,0,0,0-1.174,7.68h-4.16s0-23.037,18.986-32.636c0,0,3.517-1.279,4.478,2.027Zm13.331,0h-10.026V593.854h5.227s10.558.136,10.558,8.349c0,0-.107,5.439-3.2,6.932a9.674,9.674,0,0,1,5.97,9.172C-1043.321,624.771-1049.719,626.519-1051.852,626.733Zm.639-32.879c-8.531-2.21-5.757-14.048-4.8-14.474a12.33,12.33,0,0,1,6.4,12.157,11.182,11.182,0,0,1,10.985-3.732S-1041.854,596.277-1051.213,593.854Z" fill="#fff"/>
      <path id="Path_4665" data-name="Path 4665" d="M-1081.821,614.681h12.586V598.364C-1079.261,605.828-1081.821,614.681-1081.821,614.681Z" fill="#fff"/>
      <path id="Path_4666" data-name="Path 4666" d="M-1050.038,603c.081-6.024-7.819-5.279-7.819-5.279v10.559S-1050.122,609.274-1050.038,603Z" fill="#fff"/>
    </g>
  </g>
</svg>
