<svg xmlns="http://www.w3.org/2000/svg" width="24.287" height="24.287" viewBox="0 0 24.287 24.287">
  <g id="move" transform="translate(-0.001 0)">
    <g id="Group_25300" data-name="Group 25300" transform="translate(0.001 0)">
      <path id="Path_197219" data-name="Path 197219" d="M23.809.092a.867.867,0,0,0-.777,0h0L.48,11.367A.867.867,0,0,0,.713,13l8.95,1.628,1.628,8.95a.867.867,0,0,0,.729.7.847.847,0,0,0,.123.009.867.867,0,0,0,.776-.48L24.2,1.256A.867.867,0,0,0,23.809.092Z" transform="translate(-0.001 0)" fill="#89164f"/>
    </g>
  </g>
</svg>
