<svg xmlns="http://www.w3.org/2000/svg" width="80.028" height="80.023" viewBox="0 0 80.028 80.023">
  <g id="off-logo" transform="translate(-421.234 -65.536)">
    <ellipse id="Ellipse_581" data-name="Ellipse 581" cx="40.014" cy="40.011" rx="40.014" ry="40.011" transform="translate(421.234 65.536)" fill="#912660"/>
    <g id="Group_415" data-name="Group 415" transform="translate(414.498 82.824)">
      <g id="Group_413" data-name="Group 413" transform="translate(15.844 0)">
        <path id="Path_4595" data-name="Path 4595" d="M478.781,109.366a10.746,10.746,0,0,1,2.7-7.571c2.636-3.011,6.737-4.7,10.53-5.66l.825-.209-.459-1.807-.825.209c-4.185,1.062-8.571,2.924-11.475,6.239a12.573,12.573,0,0,0-3.16,8.2q.866.393,1.873.745C478.784,109.462,478.782,109.413,478.781,109.366Z" transform="translate(-470.638 -94.118)" fill="#fff"/>
        <path id="Path_4596" data-name="Path 4596" d="M505.2,126.531a1.083,1.083,0,1,0,1.083,1.083A1.082,1.082,0,0,0,505.2,126.531Z" transform="translate(-473.5 -97.528)" fill="#fff"/>
        <path id="Path_4597" data-name="Path 4597" d="M508.785,126.028c-1.364-3.6-6.275-6.152-9.87-7.58l-1.941-.7c-.639-.2-1.287-.373-1.929-.539-1.217-.314-2.443-.6-3.667-.882-2.221-.516-4.442-1.036-6.636-1.662a41.168,41.168,0,0,1-6.5-2.357l-2.02-1.1c-2.387-1.484-4.4-3.559-4.446-6.587l-.012-.848-1.865.022.012.853c.062,4.3,3.157,7.066,6.687,8.92a21.149,21.149,0,0,0,2.582,6.128,29.058,29.058,0,0,0,7.641,8.2s1.286.884,1.569,1.069a25.424,25.424,0,0,0,3.807,2.02,23.97,23.97,0,0,0,8.019,2.029,12.049,12.049,0,0,0,5.94-.995,5.387,5.387,0,0,0,2.574-2.48A4.459,4.459,0,0,0,508.785,126.028Zm-1.746,2.734a3.589,3.589,0,0,1-1.713,1.595,10.305,10.305,0,0,1-5.019.8,22.18,22.18,0,0,1-7.37-1.88,25.284,25.284,0,0,1-3.191-1.662l-1.587-1.05a27.215,27.215,0,0,1-7.385-7.837,20.326,20.326,0,0,1-1.94-4.11,47.925,47.925,0,0,0,5.348,1.829c2.24.64,4.505,1.171,6.774,1.7,1.207.281,2.417.56,3.618.87a28.967,28.967,0,0,1,2.809.841,27.243,27.243,0,0,1,6.832,3.519,8.311,8.311,0,0,1,2.826,3.311A2.622,2.622,0,0,1,507.039,128.761Z" transform="translate(-469.9 -95.134)" fill="#fff"/>
        <path id="Path_4598" data-name="Path 4598" d="M526.657,123.565a10.752,10.752,0,0,1-2.7,7.572c-2.636,3.011-6.738,4.7-10.531,5.66l-.825.209.459,1.808.825-.209c4.185-1.063,8.572-2.924,11.475-6.24a12.567,12.567,0,0,0,3.16-8.2q-.867-.393-1.874-.744C526.653,123.47,526.655,123.518,526.657,123.565Z" transform="translate(-474.393 -97.201)" fill="#fff"/>
        <path id="Path_4599" data-name="Path 4599" d="M532.786,126.648c-.061-4.3-3.157-7.067-6.687-8.921a21.138,21.138,0,0,0-2.583-6.127,29.035,29.035,0,0,0-7.64-8.2l-1.57-1.069a27.354,27.354,0,0,0-3.807-2.02,23.993,23.993,0,0,0-8.019-2.03,12.062,12.062,0,0,0-5.939,1,5.393,5.393,0,0,0-2.574,2.481,4.462,4.462,0,0,0-.054,3.516c1.364,3.6,6.29,6.117,9.87,7.579.305.124,1.941.7,1.941.7.638.2,1.287.373,1.929.539,1.217.314,2.443.6,3.666.881,2.222.517,4.442,1.037,6.636,1.662a41.112,41.112,0,0,1,6.5,2.357l2.02,1.1c2.388,1.484,4.4,3.559,4.446,6.586l.012.849,1.865-.022Zm-14.271-11.8c-2.239-.64-4.505-1.17-6.773-1.7-1.208-.281-2.418-.56-3.618-.87-.3-.077-.6-.156-.9-.238l-2-.637a27.021,27.021,0,0,1-6.743-3.485,8.307,8.307,0,0,1-2.826-3.312,2.619,2.619,0,0,1,0-2.073,3.593,3.593,0,0,1,1.714-1.594,10.288,10.288,0,0,1,5.019-.8,22.172,22.172,0,0,1,7.369,1.88,27.388,27.388,0,0,1,12.164,10.55,20.373,20.373,0,0,1,1.94,4.11A47.8,47.8,0,0,0,518.515,114.852Z" transform="translate(-472.391 -94.553)" fill="#fff"/>
        <path id="Path_4600" data-name="Path 4600" d="M501.857,105.791a1.082,1.082,0,1,0,1.084,1.083A1.082,1.082,0,0,0,501.857,105.791Z" transform="translate(-473.148 -95.346)" fill="#fff"/>
      </g>
    </g>
  </g>
</svg>
